<svg version="1.1" id="Layer_1" xmlns="http://www.w3.org/2000/svg" xmlns:xlink="http://www.w3.org/1999/xlink" x="0px" y="0px"
	 width="100%" viewBox="0 0 634 279" enable-background="new 0 0 634 279" xml:space="preserve">
<path fill="#252321" opacity="1.000000" stroke="none" 
	d="
M477.000000,280.000000 
	C318.043365,280.000000 159.586746,280.000000 1.065059,280.000000 
	C1.065059,187.068863 1.065059,94.137665 1.065059,1.103233 
	C212.333313,1.103233 423.666656,1.103233 634.978210,1.103233 
	C634.978210,94.079941 634.978210,187.039978 634.978210,280.000000 
	C582.470947,280.000000 529.985474,280.000000 477.000000,280.000000 
M99.051949,9.009599 
	C89.048767,8.973472 89.048874,8.973473 88.988564,18.998764 
	C88.986603,19.324739 88.977455,19.650667 88.052422,19.990572 
	C78.049858,20.018007 78.049965,20.018007 77.989052,29.996218 
	C77.987061,30.322151 77.977814,30.648041 77.052544,30.989569 
	C67.000000,31.020041 67.000000,31.020041 67.000000,41.222805 
	C67.000000,41.387684 67.000000,41.552559 67.000000,41.717438 
	C67.000000,52.936638 67.000000,52.936638 77.988503,53.946125 
	C78.025444,63.954494 78.025444,63.954391 87.994156,64.011063 
	C88.320076,64.012917 88.645966,64.021477 88.988869,64.960602 
	C88.992180,70.421593 88.781868,75.893967 89.071922,81.339691 
	C89.274216,85.137833 87.849312,86.586533 84.229744,85.986046 
	C79.236359,85.157646 77.116035,87.071571 77.982002,92.175827 
	C78.582977,95.718178 77.248199,97.644974 73.403435,96.987450 
	C68.102943,96.080971 66.187073,98.361221 66.963684,103.499184 
	C67.183479,104.953270 66.973602,106.472290 66.043716,107.985298 
	C64.381561,107.989975 62.700642,108.156693 61.061039,107.966743 
	C57.251148,107.525352 55.582302,108.799110 55.924564,112.909515 
	C56.268185,117.036331 55.765697,121.231186 56.067329,125.364601 
	C56.350346,129.242920 54.763260,130.287369 51.158382,130.059418 
	C47.019505,129.797699 42.835590,130.223557 38.700520,129.933456 
	C34.911312,129.667618 33.869564,131.093399 33.924675,134.772049 
	C34.118866,147.734131 33.999931,160.700897 33.999859,173.665894 
	C33.999794,185.000961 33.999844,185.000961 45.097687,185.000977 
	C55.999847,185.000992 55.999844,185.000992 55.999844,196.032349 
	C55.999844,206.908859 55.999847,206.908859 66.985275,207.955551 
	C67.039368,210.756241 66.059517,214.381042 67.445602,216.120056 
	C68.766029,217.776718 72.707115,217.108765 75.195976,218.167938 
	C76.469070,218.709702 77.840981,220.778580 77.871742,222.185608 
	C78.032700,229.549057 77.370522,228.964401 85.032448,229.000427 
	C86.352219,229.006638 87.672020,229.006012 88.995750,229.944687 
	C88.996635,234.764023 89.000229,239.583344 88.997757,244.402679 
	C88.994370,250.989243 88.992393,250.990631 82.638168,250.997040 
	C78.649765,251.001068 74.656815,251.116898 70.674477,250.962173 
	C67.814713,250.851074 67.011711,252.064819 66.940819,254.791107 
	C66.763046,261.627563 66.641777,261.880280 59.758770,261.907196 
	C55.442101,261.924011 55.887493,264.553558 56.026222,267.197449 
	C56.159775,269.742615 54.777714,273.195984 59.660553,273.042816 
	C65.803482,272.850098 71.956619,272.982666 78.532494,272.944458 
	C78.532494,272.944458 78.942284,272.820190 79.877602,272.959229 
	C115.601143,272.920807 151.324677,272.882385 187.476425,272.971344 
	C187.476425,272.971344 187.923050,272.982941 188.869888,272.992340 
	C194.356750,272.995117 199.863525,272.711121 205.324203,273.090607 
	C209.763718,273.399139 210.093002,271.167999 210.078140,267.705963 
	C210.063126,264.208191 210.084778,261.170135 205.248367,262.004608 
	C200.217178,262.872742 198.116013,260.894745 198.986694,255.786407 
	C199.606598,252.149353 198.136017,250.669785 194.319794,250.931320 
	C190.017059,251.226212 185.671921,250.852539 181.357697,251.046509 
	C178.228241,251.187225 176.776962,250.286667 176.946091,246.877914 
	C177.176514,242.233826 177.148514,237.563644 176.953400,232.916321 
	C176.822128,229.789139 178.120422,228.974319 181.057556,228.939819 
	C188.000488,228.858276 187.998993,228.724640 188.001770,221.992615 
	C188.002319,220.662460 188.002045,219.332321 188.924591,218.001633 
	C198.927109,217.999908 198.926910,217.999908 199.017105,208.022217 
	C199.020050,207.696243 199.034714,207.370346 199.961075,207.016571 
	C201.603943,207.011505 203.271713,206.820847 204.884811,207.037491 
	C209.079269,207.600754 210.298477,205.787857 210.078812,201.759476 
	C209.775101,196.190292 210.005096,190.592010 210.918274,185.001404 
	C214.275513,184.981613 217.632751,184.961823 221.914139,184.982666 
	C232.099655,185.038757 232.099930,185.038757 231.982910,174.968979 
	C231.979111,174.642212 231.956848,174.315674 231.979782,173.053757 
	C231.987122,162.271957 231.997314,151.490158 232.001007,140.708359 
	C232.004684,129.999039 232.001816,129.999039 221.317657,129.999023 
	C210.001831,129.999008 210.001831,129.999008 210.001831,118.927223 
	C210.001831,108.106667 210.001831,108.106667 199.018097,107.039032 
	C199.012955,106.211609 199.004471,105.384186 199.003174,104.556755 
	C198.992035,97.430878 198.996170,97.210114 191.675049,97.085480 
	C187.833115,97.020088 187.673691,94.843681 188.045670,92.248459 
	C188.759155,87.270836 186.969437,85.074051 181.841461,85.990952 
	C177.718292,86.728172 176.766602,84.646347 176.938110,80.912849 
	C177.196060,75.297630 177.022903,69.662613 177.951447,64.012383 
	C187.919861,63.977772 187.919693,63.977772 188.011475,54.010529 
	C188.014481,53.684853 188.027679,53.359276 188.954391,53.011482 
	C199.002548,52.973148 199.002548,52.973148 199.002548,42.785103 
	C199.002548,42.455574 199.002548,42.126045 199.002548,41.796516 
	C199.002548,30.892288 199.002548,30.892288 188.027527,30.108614 
	C187.932724,20.113123 187.932724,20.113338 177.945587,19.975060 
	C177.618179,19.970526 177.290985,19.951956 176.987595,19.024696 
	C177.032959,8.999050 177.032959,8.999050 167.258133,8.999036 
	C166.928589,8.999036 166.599045,8.999036 166.269501,8.999036 
	C155.061539,8.999036 155.061539,8.999036 154.066132,19.990297 
	C150.722397,19.980206 147.378662,19.970116 144.014267,19.042202 
	C143.974121,8.999041 143.974121,8.999041 133.773010,8.999036 
	C133.608170,8.999036 133.443329,8.999036 133.278488,8.999036 
	C122.061363,8.999036 122.061363,8.999036 121.066566,19.990005 
	C117.729256,20.013165 114.391937,20.036324 111.030708,19.124144 
	C110.929710,8.917363 110.929710,8.917333 100.459488,9.026326 
	C100.295700,9.028031 100.131966,9.034096 99.051949,9.009599 
M548.952271,115.320770 
	C542.947388,132.367035 536.942566,149.413300 530.916382,166.520126 
	C541.768860,168.057220 541.768616,168.057144 544.889832,158.630966 
	C545.150635,157.843246 545.538513,157.075974 545.660767,156.267929 
	C546.095703,153.395691 547.734253,152.554962 550.542603,152.669296 
	C555.529175,152.872299 560.546631,152.500427 565.514526,152.866440 
	C566.985962,152.974869 568.975769,154.452301 569.614258,155.821716 
	C571.266968,159.366302 572.299133,163.200180 573.494507,166.672913 
	C577.351807,166.672913 580.728149,166.672913 584.116394,166.672913 
	C584.116394,166.006210 584.205566,165.647858 584.103577,165.356445 
	C577.797058,147.338409 571.479980,129.324036 565.136597,111.318962 
	C564.873718,110.572731 564.385559,109.335945 563.946167,109.310829 
	C559.979553,109.084099 555.928955,108.636444 552.066833,109.263313 
	C550.844177,109.461769 550.115112,112.701599 548.952271,115.320770 
M326.926361,133.205246 
	C328.275970,119.870781 324.078461,111.378181 313.373566,109.817329 
	C304.198792,108.479576 294.674286,109.540314 285.376862,109.540314 
	C285.376862,128.679886 285.376862,147.711639 285.376862,166.673737 
	C288.935883,166.673737 292.163910,166.673737 295.906189,166.673737 
	C295.906189,160.105942 295.906189,153.862106 295.906189,147.228577 
	C300.579742,147.228577 304.733490,147.389023 308.870697,147.195450 
	C317.720062,146.781418 323.977051,142.693069 326.926361,133.205246 
M502.647034,128.826370 
	C500.618225,122.393105 499.953094,122.118340 490.194092,123.926750 
	C494.811523,136.937500 499.436157,149.879883 503.994934,162.845444 
	C507.024658,171.462234 504.625031,174.858673 495.304688,174.918121 
	C494.656769,177.300201 493.993073,179.740356 493.330078,182.177841 
	C505.002563,185.188965 511.472382,181.859695 515.316650,171.283310 
	C518.490295,162.551865 521.673950,153.823807 524.789001,145.071411 
	C527.307739,137.994247 529.730957,130.883041 532.250122,123.632759 
	C521.666138,122.669632 521.700806,122.680168 518.952820,131.714813 
	C516.577820,139.523315 514.112122,147.304230 511.622467,155.302963 
	C510.958862,154.746735 510.566711,154.585052 510.486450,154.326492 
	C507.928223,146.088745 505.400238,137.841629 502.647034,128.826370 
M368.352997,167.010193 
	C369.216553,165.828461 370.794312,164.666748 370.828033,163.461777 
	C371.051605,155.477325 370.952545,147.483566 370.941986,139.492874 
	C370.929108,129.776505 366.798584,124.654648 357.774475,123.134453 
	C346.693359,121.267761 338.165009,125.513298 335.048645,134.660736 
	C339.435852,135.419403 343.543732,137.611542 347.449493,132.602127 
	C348.766479,130.912964 353.246246,130.533096 355.754059,131.292770 
	C357.782471,131.907227 359.020935,135.129486 360.609802,137.194977 
	C358.920654,138.424179 357.390625,140.277039 355.510223,140.756760 
	C351.184967,141.860229 346.583282,141.910645 342.287842,143.093338 
	C336.025024,144.817719 332.938080,149.322418 333.194855,155.172409 
	C333.469421,161.428070 336.966125,165.655884 343.146881,167.271011 
	C349.950287,169.048843 355.810669,167.399597 360.766479,161.893021 
	C360.951508,163.919144 361.081299,165.340210 361.234009,167.012573 
	C363.458038,167.012573 365.438873,167.012573 368.352997,167.010193 
M391.099792,126.180420 
	C389.242432,119.786148 384.664917,124.911369 381.405457,123.061661 
	C381.405457,138.150955 381.405457,152.379517 381.405457,166.816040 
	C384.784119,166.816040 387.893280,166.816040 391.580353,166.816040 
	C391.580353,165.090256 391.576538,163.468979 391.581024,161.847733 
	C391.599945,155.024567 391.307709,148.178848 391.795685,141.389282 
	C391.991760,138.661011 393.202728,134.975723 395.213348,133.672775 
	C397.636993,132.102188 401.878632,131.470062 404.442017,132.549088 
	C406.652100,133.479431 408.751495,137.308395 408.916748,139.978577 
	C409.467163,148.870499 409.125092,157.817688 409.125092,166.651093 
	C413.014313,166.651093 416.238190,166.651093 419.300781,166.651093 
	C419.300781,155.986557 419.809814,145.665115 419.139465,135.420853 
	C418.604736,127.249489 412.674988,122.876823 404.540436,122.787399 
	C398.980927,122.726288 394.816589,125.165665 391.101074,130.667160 
	C391.101074,128.522903 391.101074,127.745720 391.099792,126.180420 
M434.342896,161.772827 
	C438.803680,167.595245 443.899902,168.943024 452.435211,166.297760 
	C451.909882,163.849808 451.375946,161.361847 450.849670,158.909576 
	C447.097107,158.975937 443.437714,159.235413 443.298767,154.705063 
	C443.065216,147.091629 443.234802,139.465820 443.234802,131.617050 
	C446.309967,131.423981 448.926025,131.259750 451.637085,131.089539 
	C451.637085,128.498245 451.637085,126.098824 451.637085,123.452080 
	C448.772430,123.320328 446.182434,123.201210 443.185547,123.063385 
	C443.185547,119.585022 443.185547,116.489975 443.185547,113.264908 
	C439.532715,113.264908 436.331177,113.264908 432.763062,113.264908 
	C432.763062,116.720604 432.763062,119.835274 432.763062,122.946243 
	C430.631989,123.216415 428.867584,123.440102 427.019348,123.674416 
	C427.019348,126.246330 427.019348,128.539352 427.019348,131.007004 
	C428.960846,131.240860 430.732208,131.454239 432.920349,131.717804 
	C432.920349,135.956253 432.784058,140.093842 432.953644,144.218857 
	C433.184326,149.829941 433.648712,155.431396 434.342896,161.772827 
M592.264282,146.499725 
	C592.264282,153.254089 592.264282,160.008469 592.264282,166.744415 
	C596.179749,166.744415 599.429382,166.744415 602.634216,166.744415 
	C602.634216,147.326309 602.634216,128.182510 602.634216,109.299454 
	C599.013855,109.299454 595.779541,109.299454 592.264343,109.299454 
	C592.264343,121.624367 592.264343,133.562073 592.264282,146.499725 
M460.250458,159.401627 
	C460.250458,161.841904 460.250458,164.282196 460.250458,166.667862 
	C464.124359,166.667862 467.355408,166.667862 470.868256,166.667862 
	C470.868256,158.347977 470.835571,150.381668 470.877991,142.415756 
	C470.915466,135.379074 474.294739,132.004776 481.220520,131.967911 
	C482.471436,131.961243 483.722412,131.966965 484.971619,131.966965 
	C484.971619,128.731979 484.971619,125.965126 484.971619,123.276840 
	C479.032654,121.618980 474.719482,124.162483 470.819672,128.748886 
	C470.453522,126.442177 470.225891,125.008316 470.010498,123.651344 
	C466.693665,123.651344 463.645447,123.651344 460.250549,123.651344 
	C460.250549,135.505646 460.250549,146.966766 460.250458,159.401627 
M336.008789,208.300385 
	C336.030823,206.826157 336.069885,205.351944 336.071045,203.877701 
	C336.072998,201.415710 336.938538,197.409592 335.865601,196.792664 
	C333.086578,195.194778 329.460785,194.826752 326.141052,194.677063 
	C325.650330,194.654938 324.814392,198.455276 324.457153,200.541733 
	C324.180450,202.157852 324.177826,203.897980 324.456757,205.513306 
	C324.832886,207.691177 325.596252,209.802170 326.193390,211.941849 
	C327.085449,210.064987 327.977509,208.188126 329.220947,205.571930 
	C331.597198,207.864975 334.020294,210.203232 336.443420,212.541489 
	C336.804230,212.202682 337.165070,211.863876 337.525909,211.525070 
	C337.119934,210.670929 336.713959,209.816788 336.008789,208.300385 
M385.850677,201.671967 
	C382.987915,196.727798 378.443298,200.080994 374.403656,198.983994 
	C374.280579,200.837540 374.115326,202.284821 374.101929,203.733490 
	C374.068207,207.386597 374.020752,211.043884 374.178406,214.690872 
	C374.210510,215.433731 375.117371,216.138763 375.620972,216.861237 
	C376.217957,216.253525 377.014557,215.740417 377.359344,215.013138 
	C377.753296,214.182037 377.745300,213.160400 377.900574,212.285751 
	C385.647003,211.972061 387.629852,209.507278 385.850677,201.671967 
M392.659119,208.524612 
	C393.187378,207.836639 393.635681,206.651840 394.258545,206.551590 
	C396.326782,206.218704 398.457825,206.275970 400.831268,206.171936 
	C400.958649,201.803421 399.345215,199.171875 395.406006,198.784256 
	C391.794891,198.428894 389.336517,200.251221 388.767975,204.040756 
	C388.219482,207.696335 389.057739,210.853943 392.970581,211.965439 
	C396.082886,212.849518 398.947845,212.302032 400.783478,208.462830 
	C397.767883,208.696732 395.502197,208.872467 392.659119,208.524612 
M346.271667,209.477448 
	C345.187225,208.995880 344.102753,208.514313 343.018311,208.032745 
	C343.132812,207.649368 343.247284,207.265991 343.361786,206.882599 
	C346.047424,206.578140 348.733063,206.273666 351.609039,205.947632 
	C351.392944,201.796753 350.149170,199.109573 345.924316,198.848511 
	C342.073486,198.610580 339.975403,200.705963 339.344238,204.224030 
	C338.730743,207.643692 339.662994,210.803497 343.315002,211.784592 
	C346.186737,212.556061 349.569458,213.010544 351.223602,207.908401 
	C349.334076,208.514694 348.198669,208.878998 346.271667,209.477448 
M559.276245,200.945160 
	C559.238708,202.767502 559.470032,204.653336 559.060486,206.387863 
	C558.823853,207.390503 557.553833,208.149185 556.748901,209.017670 
	C556.008972,208.114456 554.842407,207.302994 554.624023,206.287628 
	C554.247864,204.538681 554.622620,202.638016 554.347351,200.852661 
	C554.240723,200.160873 553.223633,199.609451 552.621277,198.994064 
	C552.104858,199.508789 551.311951,199.934937 551.114380,200.551788 
	C548.825378,207.697586 551.728333,211.664932 559.175659,211.704010 
	C560.132874,211.709030 561.089722,211.799088 562.704773,211.884567 
	C562.704773,208.050613 562.928528,204.439377 562.626160,200.872742 
	C562.424438,198.494064 561.016296,198.150009 559.276245,200.945160 
M490.215302,196.294098 
	C486.992126,192.083221 482.946014,195.306656 479.304810,194.356812 
	C479.304810,200.652649 479.304810,206.215332 479.304810,212.033890 
	C484.157990,211.302414 480.776825,207.134964 482.714630,205.345703 
	C484.928345,204.913361 487.245544,204.460815 489.562744,204.008270 
	C489.522064,203.441406 489.481354,202.874527 489.440674,202.307648 
	C487.792511,202.162003 486.094635,202.207153 484.515717,201.795731 
	C483.635986,201.566513 482.954254,200.577438 482.183289,199.930786 
	C482.953735,199.103317 483.588013,197.833267 484.524414,197.545181 
	C486.209564,197.026718 488.075806,197.096924 490.215302,196.294098 
M530.247681,199.667465 
	C527.522034,202.780319 527.748352,199.045609 526.789795,198.151367 
	C525.352905,196.810883 523.979980,195.401871 521.760254,193.214249 
	C523.934265,200.080063 525.557983,205.337143 527.306702,210.552307 
	C527.504211,211.141266 528.406921,211.493744 528.982605,211.955902 
	C529.569031,211.137405 530.395874,210.398026 530.696228,209.485367 
	C531.555176,206.875366 531.980225,204.107071 532.994324,201.568146 
	C533.927551,199.231613 535.403931,197.112015 536.641052,194.896851 
	C536.085510,194.494202 535.529968,194.091537 534.974426,193.688873 
	C533.531067,195.480789 532.087708,197.272705 530.247681,199.667465 
M435.943298,206.223007 
	C436.734222,212.401627 436.734222,212.401627 447.759338,211.437881 
	C447.759338,209.217331 447.962219,206.913696 447.697388,204.665146 
	C447.471344,202.745819 446.707916,200.889801 446.182220,199.005768 
	C445.501740,200.896820 444.950684,202.848541 444.101257,204.660416 
	C443.374847,206.209915 442.306213,207.598999 441.388947,209.059036 
	C440.634613,207.629974 439.760010,206.249634 439.156433,204.759506 
	C438.404419,202.902817 437.875946,200.955597 437.250916,199.047485 
	C436.814484,200.973724 436.375519,202.899414 435.946259,204.827255 
	C435.911041,204.985397 435.941742,205.158218 435.943298,206.223007 
M461.125977,208.512543 
	C458.915771,206.375870 456.705566,204.239212 453.832825,201.462082 
	C456.316132,201.860428 458.356445,202.187698 460.396759,202.514969 
	C460.600281,201.999313 460.803772,201.483658 461.007263,200.967987 
	C458.999542,200.228333 456.960388,198.853333 454.994080,198.950607 
	C453.428467,199.028046 450.870056,200.701294 450.625061,202.015244 
	C449.630280,207.351257 455.857849,205.664597 458.738159,209.661499 
	C455.197754,209.102554 452.880646,208.736725 450.159027,208.307037 
	C453.253448,213.338623 457.251801,213.515869 461.125977,208.512543 
M411.981262,211.446854 
	C418.620178,203.908966 408.444885,205.641586 406.267792,201.435547 
	C409.205353,201.866196 411.227295,202.162613 413.249268,202.459030 
	C413.439148,201.933868 413.629028,201.408707 413.818909,200.883545 
	C411.798065,200.181091 409.736450,198.848404 407.769196,198.975555 
	C406.194427,199.077316 404.734283,200.953094 403.223267,202.041550 
	C405.364716,204.280685 407.506195,206.519821 410.302826,209.444000 
	C407.807434,209.037827 405.650909,208.686829 402.952972,208.247681 
	C404.809906,212.904938 407.978516,212.605087 411.981262,211.446854 
M548.181702,203.268646 
	C547.126465,199.497772 544.216797,197.965164 540.949280,199.138901 
	C538.930115,199.864227 536.737976,202.351288 536.189026,204.455826 
	C535.072021,208.737656 537.734741,211.878342 541.698059,212.152496 
	C546.313110,212.471725 548.350830,209.984909 548.181702,203.268646 
M503.902863,203.891541 
	C503.034760,200.592117 500.951965,198.369629 497.510406,198.988358 
	C495.526672,199.345032 492.674744,200.845520 492.231323,202.404907 
	C491.556702,204.777298 491.858673,208.193451 493.220856,210.127457 
	C494.241852,211.577011 498.367493,212.560883 499.711792,211.661331 
	C501.767059,210.286011 502.616272,207.108398 503.902863,203.891541 
M360.325073,198.687210 
	C354.524719,199.617661 351.418182,204.379990 354.315369,208.742737 
	C355.493958,210.517593 358.528473,211.643326 360.835266,211.868408 
	C362.234375,212.004959 363.856873,209.852432 366.162720,208.149490 
	C362.188324,208.149490 359.839539,208.409760 357.651886,207.932068 
	C357.208984,207.835373 357.039215,203.626923 357.312988,203.557404 
	C359.709656,202.949036 362.235657,202.850204 365.980713,202.473907 
	C364.039886,201.037506 362.534760,199.923584 360.325073,198.687210 
M429.393494,199.803467 
	C429.392548,201.466156 429.434540,203.130188 429.382507,204.791275 
	C429.232880,209.565918 428.594513,209.894592 424.394043,207.567810 
	C423.894928,207.291306 423.181244,207.402130 422.567017,207.333435 
	C422.241730,207.733917 421.916443,208.134399 421.591187,208.534897 
	C423.037445,209.749390 424.590790,212.062103 425.906128,211.933853 
	C428.161530,211.713974 431.770874,210.334518 432.146271,208.792862 
	C433.142029,204.703445 432.768402,200.267441 432.779510,195.968918 
	C432.780823,195.462112 431.855652,194.729568 431.224121,194.528656 
	C430.848297,194.409103 429.873718,195.032639 429.751312,195.481155 
	C429.452087,196.578049 429.491516,197.767365 429.393494,199.803467 
M469.724823,200.969971 
	C468.551514,199.286545 467.378204,197.603134 466.204895,195.919708 
	C465.282257,196.955811 463.507538,198.061691 463.585663,199.015884 
	C463.910889,202.988190 464.590668,206.971176 465.653656,210.808060 
	C465.853058,211.527740 468.402130,211.596451 468.560577,211.636383 
	C468.744965,207.665665 468.893860,204.458832 469.724823,200.969971 
M506.393585,205.478882 
	C506.429871,207.141113 506.332489,208.823318 506.576172,210.454575 
	C506.659546,211.012741 507.606659,211.834869 508.143066,211.822800 
	C508.688385,211.810516 509.610901,210.965546 509.677612,210.403305 
	C509.931244,208.265182 509.325500,205.825577 510.162018,204.017288 
	C510.870819,202.485123 513.126465,201.668533 514.697571,200.535278 
	C514.383057,200.124390 514.068542,199.713516 513.754028,199.302643 
	C511.448151,199.302643 509.142303,199.302643 506.394470,199.302643 
	C506.394470,201.290054 506.394470,202.928741 506.393585,205.478882 
M368.023529,210.082870 
	C370.088654,212.344025 370.703369,212.406601 370.842072,210.517242 
	C371.120209,206.728058 370.924713,202.904129 370.924713,199.094528 
	C370.128937,199.042816 369.333130,198.991089 368.537354,198.939377 
	C368.359711,202.349625 368.182068,205.759888 368.023529,210.082870 
z"/>
<path fill="#000000" opacity="1.000000" stroke="none" 
	d="
M66.960785,107.961533 
	C66.973602,106.472290 67.183479,104.953270 66.963684,103.499184 
	C66.187073,98.361221 68.102943,96.080971 73.403435,96.987450 
	C77.248199,97.644974 78.582977,95.718178 77.982002,92.175827 
	C77.116035,87.071571 79.236359,85.157646 84.229744,85.986046 
	C87.849312,86.586533 89.274216,85.137833 89.071922,81.339691 
	C88.781868,75.893967 88.992180,70.421593 88.998474,64.475151 
	C89.008080,63.989700 89.045830,63.954056 89.501923,63.977665 
	C93.328392,63.977627 96.698753,63.953979 100.036652,64.198364 
	C100.047699,64.641052 100.091232,64.815704 100.058067,65.453827 
	C100.032173,72.281296 100.082970,78.645287 100.255417,85.429771 
	C122.221184,85.850258 144.065323,85.850258 165.930222,85.850258 
	C165.930222,78.204361 165.930222,71.069359 166.391052,63.967354 
	C170.221680,63.987244 173.591492,63.974136 176.979248,63.979763 
	C176.997208,63.998493 177.033051,64.036011 177.033051,64.036011 
	C177.022903,69.662613 177.196060,75.297630 176.938110,80.912849 
	C176.766602,84.646347 177.718292,86.728172 181.841461,85.990952 
	C186.969437,85.074051 188.759155,87.270836 188.045670,92.248459 
	C187.673691,94.843681 187.833115,97.020088 191.675049,97.085480 
	C198.996170,97.210114 198.992035,97.430878 199.003174,104.556755 
	C199.004471,105.384186 199.012955,106.211609 199.019958,107.509293 
	C199.021835,107.979561 198.998215,108.001801 198.751572,107.986801 
	C198.504929,107.971802 198.024384,108.087044 197.558044,108.023376 
	C190.510330,107.959717 183.928955,107.959717 176.913040,107.959717 
	C176.913040,104.228867 176.913040,101.103432 176.931366,97.707275 
	C176.641296,97.320595 176.332886,97.204643 175.557800,97.027359 
	C146.718979,97.010765 118.346878,97.055511 89.709686,97.082581 
	C89.332787,97.366631 89.220978,97.668358 89.045990,98.426300 
	C88.982811,101.809052 88.982811,104.735596 88.982811,108.091927 
	C81.553642,108.091927 74.766754,108.091927 67.739273,108.034431 
	C67.498680,107.976936 67.004715,108.004715 66.993500,107.994202 
	C66.982277,107.983681 66.960785,107.961533 66.960785,107.961533 
z"/>
<path fill="#000000" opacity="1.000000" stroke="none" 
	d="
M66.959969,207.038452 
	C55.999847,206.908859 55.999844,206.908859 55.999844,196.032349 
	C55.999844,185.000992 55.999847,185.000992 45.097687,185.000977 
	C33.999844,185.000961 33.999794,185.000961 33.999859,173.665894 
	C33.999931,160.700897 34.118866,147.734131 33.924675,134.772049 
	C33.869564,131.093399 34.911312,129.667618 38.700520,129.933456 
	C42.835590,130.223557 47.019505,129.797699 51.158382,130.059418 
	C54.763260,130.287369 56.350346,129.242920 56.067329,125.364601 
	C55.765697,121.231186 56.268185,117.036331 55.924564,112.909515 
	C55.582302,108.799110 57.251148,107.525352 61.061039,107.966743 
	C62.700642,108.156693 64.381561,107.989975 66.502251,107.973419 
	C66.960785,107.961533 66.982277,107.983681 66.980408,108.240601 
	C66.978531,108.497513 67.102768,108.975121 67.040756,109.441750 
	C67.020119,141.946426 67.061501,173.984467 67.040543,206.262009 
	C66.978203,206.501511 67.004234,206.995804 66.993271,207.006531 
	C66.982307,207.017258 66.959969,207.038452 66.959969,207.038452 
M46.870766,174.036453 
	C49.587227,173.997742 52.303684,173.959030 55.567589,173.956009 
	C55.686012,173.644440 55.804436,173.332870 56.046070,172.088364 
	C56.005032,162.052429 55.963989,152.016495 55.957321,141.432999 
	C55.645485,141.314972 55.333652,141.196960 54.123589,140.958450 
	C51.407753,141.004013 48.691917,141.049576 45.443462,141.061844 
	C45.330936,141.364914 45.218407,141.667999 44.979462,142.904556 
	C45.021465,152.945160 45.063465,162.985764 45.063698,173.558868 
	C45.367073,173.674057 45.670452,173.789246 46.870766,174.036453 
z"/>
<path fill="#000000" opacity="1.000000" stroke="none" 
	d="
M188.002151,218.002167 
	C188.002045,219.332321 188.002319,220.662460 188.001770,221.992615 
	C187.998993,228.724640 188.000488,228.858276 181.057556,228.939819 
	C178.120422,228.974319 176.822128,229.789139 176.953400,232.916321 
	C177.148514,237.563644 177.176514,242.233826 176.946091,246.877914 
	C176.776962,250.286667 178.228241,251.187225 181.357697,251.046509 
	C185.671921,250.852539 190.017059,251.226212 194.319794,250.931320 
	C198.136017,250.669785 199.606598,252.149353 198.986694,255.786407 
	C198.116013,260.894745 200.217178,262.872742 205.248367,262.004608 
	C210.084778,261.170135 210.063126,264.208191 210.078140,267.705963 
	C210.093002,271.167999 209.763718,273.399139 205.324203,273.090607 
	C199.863525,272.711121 194.356750,272.995117 188.424835,272.748108 
	C187.979782,272.503906 187.883575,272.031250 187.962219,271.584229 
	C188.001572,268.418365 187.962265,265.699463 187.940155,262.706787 
	C187.645493,262.314941 187.333618,262.196930 186.555252,262.018524 
	C179.397629,261.909332 172.706528,261.860565 166.009766,261.364471 
	C165.992401,257.585815 165.980652,254.254517 166.001251,250.695374 
	C166.033585,250.467529 165.920807,250.021317 165.983292,249.555191 
	C166.004913,242.719559 165.964050,236.350052 165.940262,229.706757 
	C165.645493,229.314865 165.333633,229.196793 164.555161,229.018250 
	C147.062531,228.903152 130.036530,228.848541 113.122459,228.433044 
	C114.429680,227.714798 115.612717,227.111115 116.822792,227.050903 
	C119.408676,226.922226 122.035027,227.114487 121.963341,223.371246 
	C121.898056,219.962753 119.467613,220.179092 117.069054,219.919327 
	C115.670799,219.767883 114.360519,218.804214 113.475212,218.146881 
	C134.633331,218.030548 155.326904,217.973312 176.245193,217.973328 
	C176.469910,218.030563 176.929947,217.971771 177.392334,217.979630 
	C181.235703,217.990875 184.616669,217.994263 187.998825,217.998825 
	C188.000000,218.000000 188.002151,218.002167 188.002151,218.002167 
z"/>
<path fill="#E3D7BC" opacity="1.000000" stroke="none" 
	d="
M549.056274,114.935181 
	C550.115112,112.701599 550.844177,109.461769 552.066833,109.263313 
	C555.928955,108.636444 559.979553,109.084099 563.946167,109.310829 
	C564.385559,109.335945 564.873718,110.572731 565.136597,111.318962 
	C571.479980,129.324036 577.797058,147.338409 584.103577,165.356445 
	C584.205566,165.647858 584.116394,166.006210 584.116394,166.672913 
	C580.728149,166.672913 577.351807,166.672913 573.494507,166.672913 
	C572.299133,163.200180 571.266968,159.366302 569.614258,155.821716 
	C568.975769,154.452301 566.985962,152.974869 565.514526,152.866440 
	C560.546631,152.500427 555.529175,152.872299 550.542603,152.669296 
	C547.734253,152.554962 546.095703,153.395691 545.660767,156.267929 
	C545.538513,157.075974 545.150635,157.843246 544.889832,158.630966 
	C541.768616,168.057144 541.768860,168.057220 530.916382,166.520126 
	C536.942566,149.413300 542.947388,132.367035 549.056274,114.935181 
M552.935181,144.073700 
	C556.991028,144.073700 561.046875,144.073700 565.756714,144.073700 
	C563.017944,135.894958 560.569519,128.583145 557.723999,120.085617 
	C555.110046,127.991013 552.866089,134.557022 550.844543,141.190842 
	C550.611023,141.957245 551.614990,143.100754 552.935181,144.073700 
z"/>
<path fill="#E3D7BC" opacity="1.000000" stroke="none" 
	d="
M326.845276,133.595978 
	C323.977051,142.693069 317.720062,146.781418 308.870697,147.195450 
	C304.733490,147.389023 300.579742,147.228577 295.906189,147.228577 
	C295.906189,153.862106 295.906189,160.105942 295.906189,166.673737 
	C292.163910,166.673737 288.935883,166.673737 285.376862,166.673737 
	C285.376862,147.711639 285.376862,128.679886 285.376862,109.540314 
	C294.674286,109.540314 304.198792,108.479576 313.373566,109.817329 
	C324.078461,111.378181 328.275970,119.870781 326.845276,133.595978 
M300.568848,138.704361 
	C303.712830,138.479889 306.941711,138.630356 309.980621,137.942062 
	C314.409729,136.938873 316.949371,132.598511 316.693787,127.511391 
	C316.445984,122.578285 313.754913,118.701836 309.284790,118.183716 
	C304.925354,117.678429 300.461517,118.073883 295.717712,118.073883 
	C295.717712,124.221680 295.817230,130.030838 295.678070,135.834290 
	C295.602173,138.997665 297.609222,138.744232 300.568848,138.704361 
z"/>
<path fill="#8BA493" opacity="1.000000" stroke="none" 
	d="
M187.922958,262.980591 
	C187.962265,265.699463 188.001572,268.418365 187.777649,271.666656 
	C187.289444,272.361938 187.134048,272.577911 187.048218,272.843964 
	C151.324677,272.882385 115.601143,272.920807 79.320023,272.720734 
	C78.606537,272.268463 78.402924,272.120148 78.070168,271.590088 
	C78.028160,268.419678 78.067612,265.696533 78.306831,262.888916 
	C78.759262,262.632141 78.915627,262.396027 79.441742,262.029572 
	C90.268745,261.908630 100.629677,261.854248 111.444717,261.865845 
	C115.269005,261.887543 118.639206,261.843262 122.466309,261.856812 
	C126.616158,261.873718 130.309097,261.832794 134.466660,261.854156 
	C141.616348,261.881470 148.301407,261.846497 155.441650,261.877441 
	C159.269684,261.899536 162.642548,261.855682 166.015411,261.811798 
	C172.706528,261.860565 179.397629,261.909332 186.634735,262.230042 
	C187.359222,262.768341 187.606628,262.927887 187.922958,262.980591 
z"/>
<path fill="#E2D6BB" opacity="1.000000" stroke="none" 
	d="
M502.757355,129.211151 
	C505.400238,137.841629 507.928223,146.088745 510.486450,154.326492 
	C510.566711,154.585052 510.958862,154.746735 511.622467,155.302963 
	C514.112122,147.304230 516.577820,139.523315 518.952820,131.714813 
	C521.700806,122.680168 521.666138,122.669632 532.250122,123.632759 
	C529.730957,130.883041 527.307739,137.994247 524.789001,145.071411 
	C521.673950,153.823807 518.490295,162.551865 515.316650,171.283310 
	C511.472382,181.859695 505.002563,185.188965 493.330078,182.177841 
	C493.993073,179.740356 494.656769,177.300201 495.304688,174.918121 
	C504.625031,174.858673 507.024658,171.462234 503.994934,162.845444 
	C499.436157,149.879883 494.811523,136.937500 490.194092,123.926750 
	C499.953094,122.118340 500.618225,122.393105 502.757355,129.211151 
z"/>
<path fill="#E3D7BC" opacity="1.000000" stroke="none" 
	d="
M367.886353,167.011383 
	C365.438873,167.012573 363.458038,167.012573 361.234009,167.012573 
	C361.081299,165.340210 360.951508,163.919144 360.766479,161.893021 
	C355.810669,167.399597 349.950287,169.048843 343.146881,167.271011 
	C336.966125,165.655884 333.469421,161.428070 333.194855,155.172409 
	C332.938080,149.322418 336.025024,144.817719 342.287842,143.093338 
	C346.583282,141.910645 351.184967,141.860229 355.510223,140.756760 
	C357.390625,140.277039 358.920654,138.424179 360.609802,137.194977 
	C359.020935,135.129486 357.782471,131.907227 355.754059,131.292770 
	C353.246246,130.533096 348.766479,130.912964 347.449493,132.602127 
	C343.543732,137.611542 339.435852,135.419403 335.048645,134.660736 
	C338.165009,125.513298 346.693359,121.267761 357.774475,123.134453 
	C366.798584,124.654648 370.929108,129.776505 370.941986,139.492874 
	C370.952545,147.483566 371.051605,155.477325 370.828033,163.461777 
	C370.794312,164.666748 369.216553,165.828461 367.886353,167.011383 
M359.494934,155.734863 
	C359.997742,152.911606 360.500580,150.088348 361.123566,146.590317 
	C355.834991,147.617386 351.420197,147.931458 347.487213,149.474030 
	C345.597626,150.215134 343.339691,153.449860 343.582062,155.239258 
	C343.829895,157.068710 346.698059,159.323135 348.839539,159.945816 
	C352.713135,161.072205 356.395508,159.742447 359.494934,155.734863 
z"/>
<path fill="#DED2B8" opacity="1.000000" stroke="none" 
	d="
M391.100433,126.574478 
	C391.101074,127.745720 391.101074,128.522903 391.101074,130.667160 
	C394.816589,125.165665 398.980927,122.726288 404.540436,122.787399 
	C412.674988,122.876823 418.604736,127.249489 419.139465,135.420853 
	C419.809814,145.665115 419.300781,155.986557 419.300781,166.651093 
	C416.238190,166.651093 413.014313,166.651093 409.125092,166.651093 
	C409.125092,157.817688 409.467163,148.870499 408.916748,139.978577 
	C408.751495,137.308395 406.652100,133.479431 404.442017,132.549088 
	C401.878632,131.470062 397.636993,132.102188 395.213348,133.672775 
	C393.202728,134.975723 391.991760,138.661011 391.795685,141.389282 
	C391.307709,148.178848 391.599945,155.024567 391.581024,161.847733 
	C391.576538,163.468979 391.580353,165.090256 391.580353,166.816040 
	C387.893280,166.816040 384.784119,166.816040 381.405457,166.816040 
	C381.405457,152.379517 381.405457,138.150955 381.405457,123.061661 
	C384.664917,124.911369 389.242432,119.786148 391.100433,126.574478 
z"/>
<path fill="#000000" opacity="1.000000" stroke="none" 
	d="
M199.033112,107.967850 
	C210.001831,108.106667 210.001831,108.106667 210.001831,118.927223 
	C210.001831,129.999008 210.001831,129.999008 221.317657,129.999023 
	C232.001816,129.999039 232.004684,129.999039 232.001007,140.708359 
	C231.997314,151.490158 231.987122,162.271957 231.510834,173.525208 
	C227.720520,174.022797 224.399170,174.048965 221.051559,174.048431 
	C221.025314,174.021744 220.970718,173.970520 221.006790,173.730682 
	C221.042862,173.490829 220.926361,173.019928 220.986877,172.553406 
	C221.005920,162.051453 220.964447,152.016006 220.940155,141.706772 
	C220.645477,141.314972 220.333633,141.196960 219.572678,141.018692 
	C216.407974,141.004440 213.692368,141.050415 210.759521,141.041687 
	C210.542297,140.986984 210.097443,141.040405 209.637329,141.030060 
	C205.853271,141.007507 202.529327,140.995331 199.147034,140.518906 
	C199.031128,129.695892 198.973587,119.337143 198.973694,108.737366 
	C199.031311,108.496338 198.998215,108.001801 198.998215,108.001801 
	C198.998215,108.001801 199.021835,107.979561 199.033112,107.967850 
z"/>
<path fill="#010101" opacity="1.000000" stroke="none" 
	d="
M78.107063,262.973358 
	C78.067612,265.696533 78.028160,268.419678 78.020081,271.822571 
	C78.051453,272.502289 78.105347,272.974884 78.105347,272.974884 
	C71.956619,272.982666 65.803482,272.850098 59.660553,273.042816 
	C54.777714,273.195984 56.159775,269.742615 56.026222,267.197449 
	C55.887493,264.553558 55.442101,261.924011 59.758770,261.907196 
	C66.641777,261.880280 66.763046,261.627563 66.940819,254.791107 
	C67.011711,252.064819 67.814713,250.851074 70.674477,250.962173 
	C74.656815,251.116898 78.649765,251.001068 82.638168,250.997040 
	C88.992393,250.990631 88.994370,250.989243 88.997757,244.402679 
	C89.000229,239.583344 88.996635,234.764023 88.998688,229.471222 
	C89.001617,228.997742 89.009727,228.988174 89.468414,228.992615 
	C93.311172,229.007065 96.695236,229.017090 100.035866,229.264648 
	C99.992432,229.502182 100.107224,229.971313 100.044006,230.437805 
	C100.022888,237.278503 100.064980,243.652710 100.086548,250.292725 
	C100.368683,250.674210 100.671326,250.789886 101.425461,250.973022 
	C104.914841,251.093735 107.952744,251.146988 110.993828,251.639618 
	C110.994881,255.319275 110.992752,258.559570 110.990616,261.799866 
	C100.629677,261.854248 90.268745,261.908630 79.175453,262.013397 
	C78.331093,262.366943 78.219078,262.670166 78.107063,262.973358 
z"/>
<path fill="#E5D9BD" opacity="1.000000" stroke="none" 
	d="
M434.177887,161.404907 
	C433.648712,155.431396 433.184326,149.829941 432.953644,144.218857 
	C432.784058,140.093842 432.920349,135.956253 432.920349,131.717804 
	C430.732208,131.454239 428.960846,131.240860 427.019348,131.007004 
	C427.019348,128.539352 427.019348,126.246330 427.019348,123.674416 
	C428.867584,123.440102 430.631989,123.216415 432.763062,122.946243 
	C432.763062,119.835274 432.763062,116.720604 432.763062,113.264908 
	C436.331177,113.264908 439.532715,113.264908 443.185547,113.264908 
	C443.185547,116.489975 443.185547,119.585022 443.185547,123.063385 
	C446.182434,123.201210 448.772430,123.320328 451.637085,123.452080 
	C451.637085,126.098824 451.637085,128.498245 451.637085,131.089539 
	C448.926025,131.259750 446.309967,131.423981 443.234802,131.617050 
	C443.234802,139.465820 443.065216,147.091629 443.298767,154.705063 
	C443.437714,159.235413 447.097107,158.975937 450.849670,158.909576 
	C451.375946,161.361847 451.909882,163.849808 452.435211,166.297760 
	C443.899902,168.943024 438.803680,167.595245 434.177887,161.404907 
z"/>
<path fill="#E1D6BB" opacity="1.000000" stroke="none" 
	d="
M592.264282,145.999756 
	C592.264343,133.562073 592.264343,121.624367 592.264343,109.299454 
	C595.779541,109.299454 599.013855,109.299454 602.634216,109.299454 
	C602.634216,128.182510 602.634216,147.326309 602.634216,166.744415 
	C599.429382,166.744415 596.179749,166.744415 592.264282,166.744415 
	C592.264282,160.008469 592.264282,153.254089 592.264282,145.999756 
z"/>
<path fill="#DED3B8" opacity="1.000000" stroke="none" 
	d="
M460.250488,158.914764 
	C460.250549,146.966766 460.250549,135.505646 460.250549,123.651344 
	C463.645447,123.651344 466.693665,123.651344 470.010498,123.651344 
	C470.225891,125.008316 470.453522,126.442177 470.819672,128.748886 
	C474.719482,124.162483 479.032654,121.618980 484.971619,123.276840 
	C484.971619,125.965126 484.971619,128.731979 484.971619,131.966965 
	C483.722412,131.966965 482.471436,131.961243 481.220520,131.967911 
	C474.294739,132.004776 470.915466,135.379074 470.877991,142.415756 
	C470.835571,150.381668 470.868256,158.347977 470.868256,166.667862 
	C467.355408,166.667862 464.124359,166.667862 460.250458,166.667862 
	C460.250458,164.282196 460.250458,161.841904 460.250488,158.914764 
z"/>
<path fill="#000000" opacity="1.000000" stroke="none" 
	d="
M88.996712,229.003143 
	C87.672020,229.006012 86.352219,229.006638 85.032448,229.000427 
	C77.370522,228.964401 78.032700,229.549057 77.871742,222.185608 
	C77.840981,220.778580 76.469070,218.709702 75.195976,218.167938 
	C72.707115,217.108765 68.766029,217.776718 67.445602,216.120056 
	C66.059517,214.381042 67.039368,210.756241 66.972626,207.497009 
	C66.959969,207.038452 66.982307,207.017258 67.239838,207.020203 
	C67.497375,207.023163 67.977562,206.907547 68.443604,206.972763 
	C75.497368,207.037979 82.085091,207.037979 89.115364,207.037979 
	C89.115364,210.771942 89.115364,213.899948 89.054848,217.244186 
	C88.994331,217.460419 89.035896,217.907562 89.025665,218.371231 
	C89.013535,222.219330 89.011635,225.603745 89.009727,228.988174 
	C89.009727,228.988174 89.001617,228.997742 88.996712,229.003143 
z"/>
<path fill="#000000" opacity="1.000000" stroke="none" 
	d="
M188.054642,31.041025 
	C199.002548,30.892288 199.002548,30.892288 199.002548,41.796516 
	C199.002548,42.126045 199.002548,42.455574 199.002548,42.785103 
	C199.002548,52.973148 199.002548,52.973148 188.476547,53.004639 
	C187.998703,52.997791 187.961700,52.961533 187.986298,52.496029 
	C187.990189,45.036034 187.969482,38.041538 187.976196,31.062202 
	C188.003601,31.077358 188.054642,31.041025 188.054642,31.041025 
z"/>
<path fill="#000000" opacity="1.000000" stroke="none" 
	d="
M154.975189,19.970762 
	C155.061539,8.999036 155.061539,8.999036 166.269501,8.999036 
	C166.599045,8.999036 166.928589,8.999036 167.258133,8.999036 
	C177.032959,8.999050 177.032959,8.999050 176.957977,19.507866 
	C176.928360,19.991037 176.959061,20.045046 176.493805,20.019318 
	C169.034439,20.011242 162.040359,20.028896 155.028717,20.027397 
	C155.011169,20.008247 154.975189,19.970762 154.975189,19.970762 
z"/>
<path fill="#000000" opacity="1.000000" stroke="none" 
	d="
M77.971153,53.026768 
	C67.000000,52.936638 67.000000,52.936638 67.000000,41.717438 
	C67.000000,41.552559 67.000000,41.387684 67.000000,41.222805 
	C67.000000,31.020041 67.000000,31.020041 77.530914,30.999796 
	C78.009277,31.010023 78.046272,31.046434 78.027634,31.286217 
	C78.008995,31.525997 78.139793,31.988882 78.061172,32.452164 
	C78.034424,39.280289 78.086288,45.645134 78.072922,52.241943 
	C78.007698,52.473907 78.045464,52.954342 78.026978,52.972542 
	C78.008484,52.990738 77.971153,53.026768 77.971153,53.026768 
z"/>
<path fill="#000000" opacity="1.000000" stroke="none" 
	d="
M121.975235,19.970711 
	C122.061363,8.999036 122.061363,8.999036 133.278488,8.999036 
	C133.443329,8.999036 133.608170,8.999036 133.773010,8.999036 
	C143.974121,8.999041 143.974121,8.999041 144.006805,19.519844 
	C143.999359,19.997484 143.964523,20.035624 143.498703,20.013901 
	C136.037338,20.010303 129.041794,20.028429 122.028725,20.027384 
	C122.011192,20.008211 121.975235,19.970711 121.975235,19.970711 
z"/>
<path fill="#000000" opacity="1.000000" stroke="none" 
	d="
M210.006531,185.006180 
	C210.005096,190.592010 209.775101,196.190292 210.078812,201.759476 
	C210.298477,205.787857 209.079269,207.600754 204.884811,207.037491 
	C203.271713,206.820847 201.603943,207.011505 199.490768,207.019226 
	C199.020462,207.021866 198.998260,206.998215 199.014374,206.751465 
	C199.030487,206.504700 198.915451,206.023712 198.980133,205.557571 
	C199.100967,198.397751 199.157120,191.704071 199.655151,185.006989 
	C203.395615,185.000290 206.694214,184.997009 209.996109,184.996613 
	C209.999420,184.999512 210.006531,185.006180 210.006531,185.006180 
z"/>
<path fill="#B77373" opacity="1.000000" stroke="none" 
	d="
M336.158386,208.631516 
	C336.713959,209.816788 337.119934,210.670929 337.525909,211.525070 
	C337.165070,211.863876 336.804230,212.202682 336.443420,212.541489 
	C334.020294,210.203232 331.597198,207.864975 329.220947,205.571930 
	C327.977509,208.188126 327.085449,210.064987 326.193420,211.941864 
	C325.596252,209.802170 324.832886,207.691177 324.456757,205.513306 
	C324.177826,203.897980 324.180450,202.157852 324.457153,200.541733 
	C324.814392,198.455276 325.650330,194.654938 326.141052,194.677063 
	C329.460785,194.826752 333.086578,195.194778 335.865601,196.792664 
	C336.938538,197.409592 336.072998,201.415710 336.071045,203.877701 
	C336.069885,205.351944 336.030823,206.826157 336.158386,208.631516 
M327.942230,198.803833 
	C328.609711,200.183105 329.018402,201.845688 330.069061,202.805527 
	C330.503906,203.202805 332.622955,202.386353 333.391510,201.570938 
	C333.919159,201.011154 333.661530,198.633514 333.373291,198.559753 
	C331.679718,198.126389 329.873962,198.131500 327.942230,198.803833 
z"/>
<path fill="#B77373" opacity="1.000000" stroke="none" 
	d="
M385.985046,202.049789 
	C387.629852,209.507278 385.647003,211.972061 377.900574,212.285751 
	C377.745300,213.160400 377.753296,214.182037 377.359344,215.013138 
	C377.014557,215.740417 376.217957,216.253525 375.620972,216.861237 
	C375.117371,216.138763 374.210510,215.433731 374.178406,214.690872 
	C374.020752,211.043884 374.068207,207.386597 374.101929,203.733490 
	C374.115326,202.284821 374.280579,200.837540 374.403656,198.983994 
	C378.443298,200.080994 382.987915,196.727798 385.985046,202.049789 
M377.724365,203.369797 
	C378.257812,205.378784 378.791260,207.387756 379.324707,209.396759 
	C380.431793,209.013336 382.358643,208.812469 382.492310,208.212265 
	C382.894348,206.406799 382.597717,204.445755 382.573608,202.545395 
	C381.063873,202.597092 379.554169,202.648788 377.724365,203.369797 
z"/>
<path fill="#B77373" opacity="1.000000" stroke="none" 
	d="
M392.947815,208.786407 
	C395.502197,208.872467 397.767883,208.696732 400.783478,208.462830 
	C398.947845,212.302032 396.082886,212.849518 392.970581,211.965439 
	C389.057739,210.853943 388.219482,207.696335 388.767975,204.040756 
	C389.336517,200.251221 391.794891,198.428894 395.406006,198.784256 
	C399.345215,199.171875 400.958649,201.803421 400.831268,206.171936 
	C398.457825,206.275970 396.326782,206.218704 394.258545,206.551590 
	C393.635681,206.651840 393.187378,207.836639 392.947815,208.786407 
z"/>
<path fill="#B67272" opacity="1.000000" stroke="none" 
	d="
M346.667480,209.360382 
	C348.198669,208.878998 349.334076,208.514694 351.223602,207.908401 
	C349.569458,213.010544 346.186737,212.556061 343.315002,211.784592 
	C339.662994,210.803497 338.730743,207.643692 339.344238,204.224030 
	C339.975403,200.705963 342.073486,198.610580 345.924316,198.848511 
	C350.149170,199.109573 351.392944,201.796753 351.609039,205.947632 
	C348.733063,206.273666 346.047424,206.578140 343.361786,206.882599 
	C343.247284,207.265991 343.132812,207.649368 343.018311,208.032745 
	C344.102753,208.514313 345.187225,208.995880 346.667480,209.360382 
z"/>
<path fill="#010101" opacity="1.000000" stroke="none" 
	d="
M220.989990,184.942032 
	C217.632751,184.961823 214.275513,184.981613 210.462402,185.003784 
	C210.006531,185.006180 209.999420,184.999512 209.998917,184.538895 
	C210.013977,180.697357 210.029541,177.316452 210.279114,173.973785 
	C210.513107,174.012024 210.974854,173.904022 211.423187,173.970398 
	C214.587570,173.997940 217.303589,173.959122 220.255020,173.977875 
	C220.490417,174.035446 220.970718,173.970520 220.970718,173.970520 
	C220.970718,173.970520 221.025314,174.021744 221.027679,174.499847 
	C221.016693,178.299316 221.003342,181.620682 220.989990,184.942032 
z"/>
<path fill="#050505" opacity="1.000000" stroke="none" 
	d="
M221.452057,184.962341 
	C221.003342,181.620682 221.016693,178.299316 221.053925,174.526550 
	C224.399170,174.048965 227.720520,174.022797 231.492538,173.992828 
	C231.956848,174.315674 231.979111,174.642212 231.982910,174.968979 
	C232.099930,185.038757 232.099655,185.038757 221.452057,184.962341 
z"/>
<path fill="#000000" opacity="1.000000" stroke="none" 
	d="
M188.017410,53.015724 
	C188.027679,53.359276 188.014481,53.684853 188.011475,54.010529 
	C187.919693,63.977772 187.919861,63.977772 177.492249,64.024200 
	C177.033051,64.036011 176.997208,63.998493 177.004395,63.525307 
	C177.062057,59.712830 177.112534,56.373531 177.385895,53.034462 
	C177.608780,53.034687 178.023132,52.870327 178.471329,52.931084 
	C181.933578,52.981739 184.947647,52.971638 187.961700,52.961533 
	C187.961700,52.961533 187.998703,52.997791 188.017410,53.015724 
z"/>
<path fill="#000000" opacity="1.000000" stroke="none" 
	d="
M88.989975,64.008301 
	C88.645966,64.021477 88.320076,64.012917 87.994156,64.011063 
	C78.025444,63.954391 78.025444,63.954494 77.979828,53.486446 
	C77.971153,53.026768 78.008484,52.990738 78.481125,52.996243 
	C82.292473,53.049122 85.631195,53.096500 88.968018,53.589634 
	C89.023468,57.026920 89.080803,60.018448 89.072937,63.241879 
	C89.007729,63.473778 89.045830,63.954056 89.045830,63.954056 
	C89.045830,63.954056 89.008080,63.989700 88.989975,64.008301 
z"/>
<path fill="#0A0A0A" opacity="1.000000" stroke="none" 
	d="
M176.946014,19.965485 
	C177.290985,19.951956 177.618179,19.970526 177.945587,19.975060 
	C187.932724,20.113338 187.932724,20.113123 188.041077,30.574820 
	C188.054642,31.041025 188.003601,31.077358 187.526596,31.043953 
	C184.045975,31.054743 181.042374,31.098938 177.764542,31.039165 
	C177.282410,30.614704 177.074509,30.294214 176.929581,29.526222 
	C176.981384,26.067495 176.970230,23.056271 176.959076,20.045046 
	C176.959061,20.045046 176.928360,19.991037 176.946014,19.965485 
z"/>
<path fill="#000000" opacity="1.000000" stroke="none" 
	d="
M144.017151,19.978754 
	C147.378662,19.970116 150.722397,19.980206 154.520660,19.980530 
	C154.975189,19.970762 155.011169,20.008247 155.010040,20.267153 
	C155.008926,20.526058 155.138977,20.989103 155.060486,21.435392 
	C155.039597,24.596773 155.097168,27.311867 155.086853,30.262903 
	C155.018967,30.498848 154.903976,30.976227 154.454346,30.987312 
	C150.706314,30.989353 147.407898,30.980307 144.063278,30.517780 
	C143.999557,26.721405 143.982040,23.378515 143.964539,20.035624 
	C143.964523,20.035624 143.999359,19.997484 144.017151,19.978754 
z"/>
<path fill="#000000" opacity="1.000000" stroke="none" 
	d="
M111.054626,20.059483 
	C114.391937,20.036324 117.729256,20.013165 121.520905,19.980358 
	C121.975235,19.970711 122.011192,20.008211 122.010063,20.267139 
	C122.008934,20.526066 122.138977,20.989111 122.060501,21.435398 
	C122.039612,24.596754 122.097191,27.311827 122.086868,30.262857 
	C122.018974,30.498817 121.903969,30.976227 121.454346,30.987312 
	C117.706314,30.989357 114.407906,30.980316 111.063278,30.518105 
	C110.990616,26.727743 110.964180,23.390554 110.966019,20.072859 
	C110.994301,20.092354 111.054626,20.059483 111.054626,20.059483 
z"/>
<path fill="#000000" opacity="1.000000" stroke="none" 
	d="
M199.032196,207.033142 
	C199.034714,207.370346 199.020050,207.696243 199.017105,208.022217 
	C198.926910,217.999908 198.927109,217.999908 188.463379,218.001892 
	C188.002151,218.002167 188.000000,218.000000 187.999878,217.544632 
	C188.004990,213.788818 188.010208,210.488373 188.466492,207.133667 
	C191.952530,207.023788 194.987473,206.968201 198.263153,206.970764 
	C198.503891,207.028900 198.998260,206.998215 198.998260,206.998215 
	C198.998260,206.998215 199.020462,207.021866 199.032196,207.033142 
z"/>
<path fill="#000000" opacity="1.000000" stroke="none" 
	d="
M77.990608,30.991985 
	C77.977814,30.648041 77.987061,30.322151 77.989052,29.996218 
	C78.049965,20.018007 78.049858,20.018007 88.530823,20.001595 
	C89.009232,20.012619 89.047676,20.047667 89.029160,20.287224 
	C89.010651,20.526779 89.141808,20.989077 89.063141,21.433956 
	C88.978485,24.874468 88.972511,27.870100 88.515068,30.927109 
	C84.724495,31.007803 81.385384,31.027119 78.046272,31.046434 
	C78.046272,31.046434 78.009277,31.010023 77.990608,30.991985 
z"/>
<path fill="#111111" opacity="1.000000" stroke="none" 
	d="
M99.968201,9.038126 
	C100.131966,9.034096 100.295700,9.028031 100.459488,9.026326 
	C110.929710,8.917333 110.929710,8.917363 111.042664,19.591812 
	C111.054626,20.059483 110.994301,20.092354 110.511566,20.057747 
	C106.681831,19.967613 103.334824,19.912088 99.994362,19.407852 
	C99.990005,15.652135 99.979103,12.345130 99.968201,9.038126 
z"/>
<path fill="#000000" opacity="1.000000" stroke="none" 
	d="
M99.510071,9.023863 
	C99.979103,12.345130 99.990005,15.652135 99.542221,19.474312 
	C95.738243,20.008881 92.392960,20.028273 89.047676,20.047665 
	C89.047676,20.047667 89.009232,20.012619 88.990448,19.994617 
	C88.977455,19.650667 88.986603,19.324739 88.988564,18.998764 
	C89.048874,8.973473 89.048767,8.973472 99.510071,9.023863 
z"/>
<path fill="#B06F6F" opacity="1.000000" stroke="none" 
	d="
M559.340698,200.523285 
	C561.016296,198.150009 562.424438,198.494064 562.626160,200.872742 
	C562.928528,204.439377 562.704773,208.050613 562.704773,211.884567 
	C561.089722,211.799088 560.132874,211.709030 559.175659,211.704010 
	C551.728333,211.664932 548.825378,207.697586 551.114380,200.551788 
	C551.311951,199.934937 552.104858,199.508789 552.621277,198.994080 
	C553.223633,199.609451 554.240723,200.160873 554.347351,200.852661 
	C554.622620,202.638016 554.247864,204.538681 554.624023,206.287628 
	C554.842407,207.302994 556.008972,208.114456 556.748901,209.017670 
	C557.553833,208.149185 558.823853,207.390503 559.060486,206.387863 
	C559.470032,204.653336 559.238708,202.767502 559.340698,200.523285 
z"/>
<path fill="#B97474" opacity="1.000000" stroke="none" 
	d="
M490.040833,196.607635 
	C488.075806,197.096924 486.209564,197.026718 484.524414,197.545181 
	C483.588013,197.833267 482.953735,199.103317 482.183289,199.930786 
	C482.954254,200.577438 483.635986,201.566513 484.515717,201.795731 
	C486.094635,202.207153 487.792511,202.162003 489.440674,202.307648 
	C489.481354,202.874527 489.522064,203.441406 489.562744,204.008270 
	C487.245544,204.460815 484.928345,204.913361 482.714630,205.345703 
	C480.776825,207.134964 484.157990,211.302414 479.304810,212.033890 
	C479.304810,206.215332 479.304810,200.652649 479.304810,194.356812 
	C482.946014,195.306656 486.992126,192.083221 490.040833,196.607635 
z"/>
<path fill="#B06F6F" opacity="1.000000" stroke="none" 
	d="
M530.446045,199.366043 
	C532.087708,197.272705 533.531067,195.480789 534.974426,193.688873 
	C535.529968,194.091537 536.085510,194.494202 536.641052,194.896851 
	C535.403931,197.112015 533.927551,199.231613 532.994324,201.568146 
	C531.980225,204.107071 531.555176,206.875366 530.696228,209.485367 
	C530.395874,210.398026 529.569031,211.137405 528.982605,211.955902 
	C528.406921,211.493744 527.504211,211.141266 527.306702,210.552307 
	C525.557983,205.337143 523.934265,200.080063 521.760254,193.214249 
	C523.979980,195.401871 525.352905,196.810883 526.789795,198.151367 
	C527.748352,199.045609 527.522034,202.780319 530.446045,199.366043 
z"/>
<path fill="#B06F6F" opacity="1.000000" stroke="none" 
	d="
M435.942566,205.773621 
	C435.941742,205.158218 435.911041,204.985397 435.946259,204.827255 
	C436.375519,202.899414 436.814484,200.973724 437.250916,199.047485 
	C437.875946,200.955597 438.404419,202.902817 439.156433,204.759506 
	C439.760010,206.249634 440.634613,207.629974 441.388947,209.059036 
	C442.306213,207.598999 443.374847,206.209915 444.101257,204.660416 
	C444.950684,202.848541 445.501740,200.896820 446.182220,199.005768 
	C446.707916,200.889801 447.471344,202.745819 447.697388,204.665146 
	C447.962219,206.913696 447.759338,209.217331 447.759338,211.437881 
	C436.734222,212.401627 436.734222,212.401627 435.942566,205.773621 
z"/>
<path fill="#B67272" opacity="1.000000" stroke="none" 
	d="
M461.046997,208.909027 
	C457.251801,213.515869 453.253448,213.338623 450.159027,208.307037 
	C452.880646,208.736725 455.197754,209.102554 458.738159,209.661499 
	C455.857849,205.664597 449.630280,207.351257 450.625061,202.015244 
	C450.870056,200.701294 453.428467,199.028046 454.994080,198.950607 
	C456.960388,198.853333 458.999542,200.228333 461.007263,200.967987 
	C460.803772,201.483658 460.600281,201.999313 460.396759,202.514969 
	C458.356445,202.187698 456.316132,201.860428 453.832825,201.462082 
	C456.705566,204.239212 458.915771,206.375870 461.046997,208.909027 
z"/>
<path fill="#B67272" opacity="1.000000" stroke="none" 
	d="
M411.659882,211.634613 
	C407.978516,212.605087 404.809906,212.904938 402.952972,208.247681 
	C405.650909,208.686829 407.807434,209.037827 410.302826,209.444000 
	C407.506195,206.519821 405.364716,204.280685 403.223267,202.041550 
	C404.734283,200.953094 406.194427,199.077316 407.769196,198.975555 
	C409.736450,198.848404 411.798065,200.181091 413.818909,200.883545 
	C413.629028,201.408707 413.439148,201.933868 413.249268,202.459030 
	C411.227295,202.162613 409.205353,201.866196 406.267792,201.435547 
	C408.444885,205.641586 418.620178,203.908966 411.659882,211.634613 
z"/>
<path fill="#B97474" opacity="1.000000" stroke="none" 
	d="
M548.276489,203.638580 
	C548.350830,209.984909 546.313110,212.471725 541.698059,212.152496 
	C537.734741,211.878342 535.072021,208.737656 536.189026,204.455826 
	C536.737976,202.351288 538.930115,199.864227 540.949280,199.138901 
	C544.216797,197.965164 547.126465,199.497772 548.276489,203.638580 
M543.284180,209.553284 
	C543.881226,208.632614 545.038391,207.660034 544.958923,206.802048 
	C544.792236,205.002670 544.085632,203.210602 543.296021,201.561478 
	C543.187683,201.335114 540.560120,201.729828 540.431396,202.200974 
	C539.913879,204.095993 539.679810,206.157410 539.869873,208.105728 
	C539.931763,208.740067 541.605652,209.217133 543.284180,209.553284 
z"/>
<path fill="#B97474" opacity="1.000000" stroke="none" 
	d="
M503.940186,204.293732 
	C502.616272,207.108398 501.767059,210.286011 499.711792,211.661331 
	C498.367493,212.560883 494.241852,211.577011 493.220856,210.127457 
	C491.858673,208.193451 491.556702,204.777298 492.231323,202.404907 
	C492.674744,200.845520 495.526672,199.345032 497.510406,198.988358 
	C500.951965,198.369629 503.034760,200.592117 503.940186,204.293732 
M495.091125,203.139862 
	C495.054413,204.597473 494.462402,206.438400 495.131989,207.408493 
	C495.849548,208.448059 497.754547,208.668045 499.141266,209.245728 
	C499.510925,207.175766 499.880585,205.105820 500.250275,203.035873 
	C498.653961,202.836441 497.057678,202.636993 495.091125,203.139862 
z"/>
<path fill="#B67272" opacity="1.000000" stroke="none" 
	d="
M360.677368,198.748444 
	C362.534760,199.923584 364.039886,201.037506 365.980713,202.473907 
	C362.235657,202.850204 359.709656,202.949036 357.312988,203.557404 
	C357.039215,203.626923 357.208984,207.835373 357.651886,207.932068 
	C359.839539,208.409760 362.188324,208.149490 366.162720,208.149490 
	C363.856873,209.852432 362.234375,212.004959 360.835266,211.868408 
	C358.528473,211.643326 355.493958,210.517593 354.315369,208.742737 
	C351.418182,204.379990 354.524719,199.617661 360.677368,198.748444 
z"/>
<path fill="#B67272" opacity="1.000000" stroke="none" 
	d="
M429.394073,199.361481 
	C429.491516,197.767365 429.452087,196.578049 429.751312,195.481155 
	C429.873718,195.032639 430.848297,194.409103 431.224121,194.528656 
	C431.855652,194.729568 432.780823,195.462112 432.779510,195.968918 
	C432.768402,200.267441 433.142029,204.703445 432.146271,208.792862 
	C431.770874,210.334518 428.161530,211.713974 425.906128,211.933853 
	C424.590790,212.062103 423.037445,209.749390 421.591187,208.534897 
	C421.916443,208.134399 422.241730,207.733917 422.567017,207.333435 
	C423.181244,207.402130 423.894928,207.291306 424.394043,207.567810 
	C428.594513,209.894592 429.232880,209.565918 429.382507,204.791275 
	C429.434540,203.130188 429.392548,201.466156 429.394073,199.361481 
z"/>
<path fill="#B97474" opacity="1.000000" stroke="none" 
	d="
M469.383789,201.110992 
	C468.893860,204.458832 468.744965,207.665665 468.560577,211.636383 
	C468.402130,211.596451 465.853058,211.527740 465.653656,210.808060 
	C464.590668,206.971176 463.910889,202.988190 463.585663,199.015884 
	C463.507538,198.061691 465.282257,196.955811 466.204895,195.919708 
	C467.378204,197.603134 468.551514,199.286545 469.383789,201.110992 
z"/>
<path fill="#B67272" opacity="1.000000" stroke="none" 
	d="
M506.394043,205.023163 
	C506.394470,202.928741 506.394470,201.290054 506.394470,199.302643 
	C509.142303,199.302643 511.448151,199.302643 513.754028,199.302643 
	C514.068542,199.713516 514.383057,200.124390 514.697571,200.535278 
	C513.126465,201.668533 510.870819,202.485123 510.162018,204.017288 
	C509.325500,205.825577 509.931244,208.265182 509.677612,210.403305 
	C509.610901,210.965546 508.688385,211.810516 508.143066,211.822800 
	C507.606659,211.834869 506.659546,211.012741 506.576172,210.454575 
	C506.332489,208.823318 506.429871,207.141113 506.394043,205.023163 
z"/>
<path fill="#C67B7B" opacity="1.000000" stroke="none" 
	d="
M368.013977,209.626495 
	C368.182068,205.759888 368.359711,202.349625 368.537354,198.939377 
	C369.333130,198.991089 370.128937,199.042816 370.924713,199.094528 
	C370.924713,202.904129 371.120209,206.728058 370.842072,210.517242 
	C370.703369,212.406601 370.088654,212.344025 368.013977,209.626495 
z"/>
<path fill="#9EBAA7" opacity="1.000000" stroke="none" 
	d="
M78.318924,272.959656 
	C78.105347,272.974884 78.051453,272.502289 78.101532,272.269775 
	C78.402924,272.120148 78.606537,272.268463 78.852371,272.651215 
	C78.942284,272.820190 78.532494,272.944458 78.318924,272.959656 
z"/>
<path fill="#9EBAA7" opacity="1.000000" stroke="none" 
	d="
M187.262329,272.907654 
	C187.134048,272.577911 187.289444,272.361938 187.699005,272.113647 
	C187.883575,272.031250 187.979782,272.503906 187.951416,272.743408 
	C187.923050,272.982941 187.476425,272.971344 187.262329,272.907654 
z"/>
<path fill="#8BA493" opacity="1.000000" stroke="none" 
	d="
M198.022430,206.912598 
	C194.987473,206.968201 191.952530,207.023788 188.014160,207.067810 
	C184.062439,207.101578 181.014114,207.146942 177.729614,207.172943 
	C177.143417,207.331436 177.046616,207.600418 177.140381,208.410156 
	C177.023468,211.580566 176.969223,214.301331 176.706116,217.102219 
	C176.234589,217.359497 176.075653,217.604065 176.020477,217.916077 
	C155.326904,217.973312 134.633331,218.030548 113.009857,218.081909 
	C104.710487,218.012466 97.341034,217.948898 89.888397,217.690308 
	C89.633888,217.252975 89.403931,217.097198 89.115364,217.027954 
	C89.115364,213.899948 89.115364,210.771942 89.115364,207.037979 
	C82.085091,207.037979 75.497368,207.037979 68.358429,206.772644 
	C67.632668,206.258209 67.397888,206.096603 67.102875,206.022507 
	C67.061501,173.984467 67.020119,141.946426 67.239853,109.353920 
	C67.751511,108.625160 67.911148,108.389313 67.979866,108.091927 
	C74.766754,108.091927 81.553642,108.091927 88.982811,108.091927 
	C88.982811,104.735596 88.982811,101.809052 89.244431,98.342545 
	C89.756485,97.631340 89.912727,97.397240 89.974770,97.100266 
	C118.346878,97.055511 146.718979,97.010765 175.638336,97.234283 
	C176.361649,97.762634 176.604126,97.921120 176.913040,97.978004 
	C176.913040,101.103432 176.913040,104.228867 176.913040,107.959717 
	C183.928955,107.959717 190.510330,107.959717 197.636932,108.232368 
	C198.358856,108.768127 198.603470,108.925919 198.916046,108.978386 
	C198.973587,119.337143 199.031128,129.695892 199.083817,140.974854 
	C199.121338,145.268127 199.163712,148.641205 199.147430,152.478668 
	C199.130432,159.959305 199.172089,166.975540 199.149521,174.446045 
	C199.127960,178.270325 199.170609,181.640366 199.213272,185.010391 
	C199.157120,191.704071 199.100967,198.397751 198.771118,205.635925 
	C198.234421,206.356583 198.076096,206.600647 198.022430,206.912598 
M187.507187,195.845230 
	C187.870483,195.669418 187.970444,195.396973 187.938553,194.095413 
	C187.894440,184.061768 187.850327,174.028122 187.932205,163.065552 
	C187.932205,148.482819 187.932205,133.900085 187.932205,119.443336 
	C150.936569,119.443336 114.575531,119.443336 78.338486,119.443336 
	C78.338486,145.079712 78.338486,170.331375 78.338486,195.803757 
	C82.065285,195.803757 85.527863,195.803757 89.900543,195.932281 
	C93.270332,195.889404 96.640129,195.846512 100.939507,195.918640 
	C126.290955,195.878403 151.642395,195.838165 177.897415,195.924103 
	C180.940369,195.881241 183.983307,195.838379 187.507187,195.845230 
z"/>
<path fill="#E8DCC0" opacity="1.000000" stroke="none" 
	d="
M88.966530,30.865732 
	C88.972511,27.870100 88.978485,24.874468 89.522652,21.440582 
	C95.189659,21.001862 100.325638,21.165813 105.444763,20.942812 
	C108.827370,20.795458 110.302429,21.816391 110.078217,25.399010 
	C109.963776,27.227757 110.737312,29.112074 111.109489,30.971275 
	C114.407906,30.980316 117.706314,30.989357 121.604080,30.899324 
	C122.292938,30.730677 122.469574,30.626616 122.457893,30.597097 
	C122.379158,30.398199 122.260498,30.215107 122.154762,30.026897 
	C122.097191,27.311827 122.039612,24.596754 122.520172,21.443834 
	C128.187363,21.004965 133.323532,21.167971 138.442902,20.944925 
	C141.823074,20.797653 143.303467,21.813086 143.078201,25.398752 
	C142.963303,27.227440 143.737274,29.111973 144.109482,30.971262 
	C147.407898,30.980307 150.706314,30.989353 154.604065,30.899323 
	C155.292923,30.730682 155.469559,30.626629 155.457886,30.597120 
	C155.379166,30.398233 155.260483,30.215155 155.154755,30.026958 
	C155.097168,27.311867 155.039597,24.596773 155.520172,21.443832 
	C159.680908,21.004717 163.303482,21.002596 166.926071,21.002363 
	C175.021347,21.001842 175.012177,21.003574 176.145538,28.717274 
	C176.210861,29.161806 176.618362,29.556065 176.866608,29.973721 
	C177.074509,30.294214 177.282410,30.614704 178.071686,31.296188 
	C186.993668,32.584499 186.993683,32.584499 186.993683,41.421261 
	C186.993683,41.915901 186.993668,42.410545 186.993668,42.905186 
	C186.993652,51.022102 186.992294,51.012901 179.281418,52.148098 
	C178.836197,52.213642 178.441391,52.621685 178.023132,52.870331 
	C178.023132,52.870327 177.608780,53.034687 177.062500,53.291737 
	C174.907959,62.986641 174.907959,62.986641 166.060532,62.563110 
	C166.041168,59.402302 166.099289,56.687534 166.280396,53.855949 
	C166.238159,53.501324 166.072937,53.263519 165.450668,53.013771 
	C161.741638,53.001831 158.489655,53.001831 155.032303,53.001831 
	C155.032303,56.996971 155.032303,60.445957 155.299789,64.207672 
	C156.869919,64.681015 158.210251,65.121178 159.468399,64.951645 
	C163.842773,64.362206 165.560822,65.994934 165.060745,70.474403 
	C164.712082,73.597534 164.773621,76.810326 165.049301,79.948143 
	C165.390457,83.831131 164.080460,85.124947 160.045242,85.086334 
	C140.076355,84.895256 120.104553,85.005363 100.133774,85.009285 
	C100.082970,78.645287 100.032173,72.281296 100.503304,65.462708 
	C104.339462,64.637611 107.653694,64.267105 110.982758,63.440319 
	C110.997597,59.733299 110.997597,56.482552 110.997597,53.032654 
	C107.003815,53.032654 103.554794,53.032654 99.792381,53.299381 
	C97.983200,62.976307 97.983200,62.976307 89.138145,63.009979 
	C89.080803,60.018448 89.023468,57.026920 88.709099,53.271507 
	C85.014091,52.341743 81.576118,52.175861 78.138145,52.009979 
	C78.086288,45.645134 78.034424,39.280289 78.506378,32.459404 
	C82.342308,31.624153 85.654419,31.244944 88.966530,30.865732 
z"/>
<path fill="#FBF6DA" opacity="1.000000" stroke="none" 
	d="
M100.255417,85.429771 
	C120.104553,85.005363 140.076355,84.895256 160.045242,85.086334 
	C164.080460,85.124947 165.390457,83.831131 165.049301,79.948143 
	C164.773621,76.810326 164.712082,73.597534 165.060745,70.474403 
	C165.560822,65.994934 163.842773,64.362206 159.468399,64.951645 
	C158.210251,65.121178 156.869919,64.681015 155.755203,64.254028 
	C159.318375,64.014053 162.693634,64.040459 166.034302,64.033646 
	C165.999710,64.000427 165.930222,63.934361 165.930222,63.934361 
	C165.930222,71.069359 165.930222,78.204361 165.930222,85.850258 
	C144.065323,85.850258 122.221184,85.850258 100.255417,85.429771 
z"/>
<path fill="#FBF6DA" opacity="1.000000" stroke="none" 
	d="
M89.072937,63.241879 
	C97.983200,62.976307 97.983200,62.976307 99.747826,53.754883 
	C99.988609,57.317978 99.960564,60.692299 99.966721,64.032608 
	C100.000923,63.998589 100.069122,63.930336 100.069122,63.930336 
	C96.698753,63.953979 93.328392,63.977627 89.501923,63.977665 
	C89.045830,63.954056 89.007729,63.473778 89.072937,63.241879 
z"/>
<path fill="#FBF6DA" opacity="1.000000" stroke="none" 
	d="
M166.138016,63.009155 
	C174.907959,62.986641 174.907959,62.986641 176.839630,53.291512 
	C177.112534,56.373531 177.062057,59.712830 176.986435,63.506577 
	C173.591492,63.974136 170.221680,63.987244 166.391052,63.967354 
	C165.930222,63.934361 165.999710,64.000427 166.003616,63.766083 
	C166.051025,63.357540 166.094513,63.183346 166.138016,63.009155 
z"/>
<path fill="#FBF6DA" opacity="1.000000" stroke="none" 
	d="
M110.967918,63.896599 
	C107.653694,64.267105 104.339462,64.637611 100.580002,64.999237 
	C100.091232,64.815704 100.047699,64.641052 100.036652,64.198364 
	C100.069122,63.930336 100.000923,63.998589 100.427391,63.997673 
	C104.225212,63.963371 107.596565,63.929985 110.967918,63.896599 
z"/>
<path fill="#9EBAA7" opacity="1.000000" stroke="none" 
	d="
M89.709686,97.082581 
	C89.912727,97.397240 89.756485,97.631340 89.307617,97.886337 
	C89.220978,97.668358 89.332787,97.366631 89.709686,97.082581 
z"/>
<path fill="#9EBAA7" opacity="1.000000" stroke="none" 
	d="
M176.931366,97.707275 
	C176.604126,97.921120 176.361649,97.762634 176.105042,97.295624 
	C176.332886,97.204643 176.641296,97.320595 176.931366,97.707275 
z"/>
<path fill="#9BB6A3" opacity="1.000000" stroke="none" 
	d="
M67.739273,108.034431 
	C67.911148,108.389313 67.751511,108.625160 67.301865,108.887291 
	C67.102768,108.975121 66.978531,108.497513 66.991623,108.251114 
	C67.004715,108.004715 67.498680,107.976936 67.739273,108.034431 
z"/>
<path fill="#A0BCA9" opacity="1.000000" stroke="none" 
	d="
M198.973679,108.737366 
	C198.603470,108.925919 198.358856,108.768127 198.103287,108.296036 
	C198.024384,108.087044 198.504929,107.971802 198.751572,107.986801 
	C198.998215,108.001801 199.031311,108.496338 198.973679,108.737366 
z"/>
<path fill="#8BA493" opacity="1.000000" stroke="none" 
	d="
M55.922947,141.980560 
	C55.963989,152.016495 56.005032,162.052429 55.772980,172.633911 
	C55.233723,173.357590 55.073807,173.604553 55.020145,173.920319 
	C52.303684,173.959030 49.587227,173.997742 46.341484,173.769043 
	C45.638660,173.250961 45.403084,173.092545 45.105469,173.026367 
	C45.063465,162.985764 45.021465,152.945160 45.242828,142.354034 
	C45.759243,141.631348 45.915874,141.395233 45.976082,141.095154 
	C48.691917,141.049576 51.407753,141.004013 54.652142,141.230225 
	C55.359207,141.768356 55.606625,141.927887 55.922947,141.980560 
z"/>
<path fill="#9EBAA7" opacity="1.000000" stroke="none" 
	d="
M45.709770,141.078491 
	C45.915874,141.395233 45.759243,141.631348 45.306034,141.887283 
	C45.218407,141.667999 45.330936,141.364914 45.709770,141.078491 
z"/>
<path fill="#9EBAA7" opacity="1.000000" stroke="none" 
	d="
M55.940132,141.706787 
	C55.606625,141.927887 55.359207,141.768356 55.101257,141.290466 
	C55.333652,141.196960 55.645485,141.314972 55.940132,141.706787 
z"/>
<path fill="#9EBAA7" opacity="1.000000" stroke="none" 
	d="
M45.084583,173.292618 
	C45.403084,173.092545 45.638660,173.250961 45.893013,173.703033 
	C45.670452,173.789246 45.367073,173.674057 45.084583,173.292618 
z"/>
<path fill="#9EBAA7" opacity="1.000000" stroke="none" 
	d="
M55.293869,173.938171 
	C55.073807,173.604553 55.233723,173.357590 55.711380,173.100372 
	C55.804436,173.332870 55.686012,173.644440 55.293869,173.938171 
z"/>
<path fill="#9BB6A3" opacity="1.000000" stroke="none" 
	d="
M67.040543,206.262009 
	C67.397888,206.096603 67.632668,206.258209 67.892387,206.707428 
	C67.977562,206.907547 67.497375,207.023163 67.250809,207.009491 
	C67.004234,206.995804 66.978203,206.501511 67.040543,206.262009 
z"/>
<path fill="#8BA493" opacity="1.000000" stroke="none" 
	d="
M100.107063,250.026932 
	C100.064980,243.652710 100.022888,237.278503 100.242989,230.355087 
	C100.756737,229.635498 100.913040,229.401474 101.432655,229.038925 
	C105.597664,228.914001 109.304100,228.853958 113.010529,228.793915 
	C130.036530,228.848541 147.062531,228.903152 164.634430,229.229965 
	C165.358902,229.768829 165.606506,229.928299 165.923187,229.980545 
	C165.964050,236.350052 166.004913,242.719559 165.774719,249.632080 
	C165.240738,250.348831 165.081299,250.590775 164.571854,250.956665 
	C161.074432,251.070831 158.030518,251.129272 154.521729,251.133331 
	C147.371918,251.121506 140.686966,251.164032 133.544861,251.144699 
	C129.394913,251.122269 125.702126,251.161697 121.555313,251.134979 
	C117.731079,251.112640 114.360863,251.156448 110.990639,251.200256 
	C107.952744,251.146988 104.914841,251.093735 101.344704,250.771790 
	C100.639313,250.252563 100.404175,250.093842 100.107063,250.026932 
z"/>
<path fill="#050505" opacity="1.000000" stroke="none" 
	d="
M113.122459,228.433044 
	C109.304100,228.853958 105.597664,228.914001 101.212006,228.984222 
	C100.532776,228.994400 100.079300,229.027115 100.079300,229.027115 
	C96.695236,229.017090 93.311172,229.007065 89.468414,228.992615 
	C89.011635,225.603745 89.013535,222.219330 89.260696,218.412491 
	C89.505959,217.990082 89.971573,217.885345 89.971573,217.885345 
	C97.341034,217.948898 104.710487,218.012466 112.545303,218.141022 
	C114.360519,218.804214 115.670799,219.767883 117.069054,219.919327 
	C119.467613,220.179092 121.898056,219.962753 121.963341,223.371246 
	C122.035027,227.114487 119.408676,226.922226 116.822792,227.050903 
	C115.612717,227.111115 114.429680,227.714798 113.122459,228.433044 
z"/>
<path fill="#0A0A0A" opacity="1.000000" stroke="none" 
	d="
M154.986588,251.187698 
	C158.030518,251.129272 161.074432,251.070831 164.806641,251.009125 
	C165.494919,251.005859 165.968903,250.923203 165.968903,250.923203 
	C165.980652,254.254517 165.992401,257.585815 166.009766,261.364471 
	C162.642548,261.855682 159.269684,261.899536 155.446762,261.435425 
	C154.993332,257.680847 154.989960,254.434280 154.986588,251.187698 
z"/>
<path fill="#0A0A0A" opacity="1.000000" stroke="none" 
	d="
M176.914978,217.022079 
	C176.969223,214.301331 177.023468,211.580566 177.302979,208.320831 
	C177.731186,207.627701 177.877029,207.431183 177.965790,207.192291 
	C181.014114,207.146942 184.062439,207.101578 187.563095,207.122070 
	C188.010208,210.488373 188.004990,213.788818 187.998703,217.543457 
	C184.616669,217.994263 181.235703,217.990875 177.437744,217.741425 
	C177.020752,217.495361 176.914978,217.022079 176.914978,217.022079 
z"/>
<path fill="#9EBAA7" opacity="1.000000" stroke="none" 
	d="
M187.940155,262.706787 
	C187.606628,262.927887 187.359222,262.768341 187.101242,262.290436 
	C187.333618,262.196930 187.645493,262.314941 187.940155,262.706787 
z"/>
<path fill="#9EBAA7" opacity="1.000000" stroke="none" 
	d="
M176.706116,217.102219 
	C176.914978,217.022079 177.020752,217.495361 176.975342,217.733566 
	C176.929947,217.971771 176.469910,218.030563 176.245193,217.973328 
	C176.075653,217.604065 176.234589,217.359497 176.706116,217.102219 
z"/>
<path fill="#9EBAA7" opacity="1.000000" stroke="none" 
	d="
M166.001251,250.695374 
	C165.968903,250.923203 165.494919,251.005859 165.260132,250.953384 
	C165.081299,250.590775 165.240738,250.348831 165.712219,250.098206 
	C165.920807,250.021317 166.033585,250.467529 166.001251,250.695374 
z"/>
<path fill="#9EBAA7" opacity="1.000000" stroke="none" 
	d="
M165.940262,229.706757 
	C165.606506,229.928299 165.358902,229.768829 165.101074,229.290436 
	C165.333633,229.196793 165.645493,229.314865 165.940262,229.706757 
z"/>
<path fill="#2B2926" opacity="1.000000" stroke="none" 
	d="
M552.490234,144.071564 
	C551.614990,143.100754 550.611023,141.957245 550.844543,141.190842 
	C552.866089,134.557022 555.110046,127.991013 557.723999,120.085617 
	C560.569519,128.583145 563.017944,135.894958 565.756714,144.073700 
	C561.046875,144.073700 556.991028,144.073700 552.490234,144.071564 
z"/>
<path fill="#2A2725" opacity="1.000000" stroke="none" 
	d="
M300.107666,138.704102 
	C297.609222,138.744232 295.602173,138.997665 295.678070,135.834290 
	C295.817230,130.030838 295.717712,124.221680 295.717712,118.073883 
	C300.461517,118.073883 304.925354,117.678429 309.284790,118.183716 
	C313.754913,118.701836 316.445984,122.578285 316.693787,127.511391 
	C316.949371,132.598511 314.409729,136.938873 309.980621,137.942062 
	C306.941711,138.630356 303.712830,138.479889 300.107666,138.704102 
z"/>
<path fill="#000000" opacity="1.000000" stroke="none" 
	d="
M154.521729,251.133331 
	C154.989960,254.434280 154.993332,257.680847 154.991592,261.369446 
	C148.301407,261.846497 141.616348,261.881470 134.466034,261.413757 
	C134.001205,257.676208 134.001602,254.441391 134.002014,251.206573 
	C140.686966,251.164032 147.371918,251.121506 154.521729,251.133331 
z"/>
<path fill="#010101" opacity="1.000000" stroke="none" 
	d="
M133.544861,251.144699 
	C134.001602,254.441391 134.001205,257.676208 134.001419,261.351440 
	C130.309097,261.832794 126.616158,261.873718 122.463150,261.417480 
	C122.005165,257.680603 122.007248,254.440872 122.009331,251.201141 
	C125.702126,251.161697 129.394913,251.122269 133.544861,251.144699 
z"/>
<path fill="#060606" opacity="1.000000" stroke="none" 
	d="
M121.555313,251.134979 
	C122.007248,254.440872 122.005165,257.680603 122.006241,261.359680 
	C118.639206,261.843262 115.269005,261.887543 111.444717,261.865845 
	C110.992752,258.559570 110.994881,255.319275 110.993828,251.639618 
	C114.360863,251.156448 117.731079,251.112640 121.555313,251.134979 
z"/>
<path fill="#9EBAA7" opacity="1.000000" stroke="none" 
	d="
M78.306831,262.888916 
	C78.219078,262.670166 78.331093,262.366943 78.709396,262.079926 
	C78.915627,262.396027 78.759262,262.632141 78.306831,262.888916 
z"/>
<path fill="#2D2B28" opacity="1.000000" stroke="none" 
	d="
M359.268921,156.058533 
	C356.395508,159.742447 352.713135,161.072205 348.839539,159.945816 
	C346.698059,159.323135 343.829895,157.068710 343.582062,155.239258 
	C343.339691,153.449860 345.597626,150.215134 347.487213,149.474030 
	C351.420197,147.931458 355.834991,147.617386 361.123566,146.590317 
	C360.500580,150.088348 359.997742,152.911606 359.268921,156.058533 
z"/>
<path fill="#8BA493" opacity="1.000000" stroke="none" 
	d="
M220.019623,173.920288 
	C217.303589,173.959122 214.587570,173.997940 211.341797,173.768524 
	C210.638397,173.249512 210.403336,173.088303 210.043198,172.550812 
	C209.928116,165.394287 209.876663,158.703583 209.893585,151.561371 
	C210.017090,148.062546 210.072220,145.015228 210.323303,141.882751 
	C210.766434,141.625641 210.918930,141.391907 210.976761,141.096390 
	C213.692368,141.050415 216.407974,141.004440 219.652130,141.230209 
	C220.359192,141.768387 220.606613,141.927917 220.922974,141.980560 
	C220.964447,152.016006 221.005920,162.051453 220.774750,172.632538 
	C220.235016,173.356461 220.074188,173.603836 220.019623,173.920288 
z"/>
<path fill="#0A0A0A" opacity="1.000000" stroke="none" 
	d="
M210.127335,141.967911 
	C210.072220,145.015228 210.017090,148.062546 209.451050,151.556824 
	C205.695435,152.007263 202.450745,152.010773 199.206085,152.014282 
	C199.163712,148.641205 199.121338,145.268127 199.142181,141.439102 
	C202.529327,140.995331 205.853271,141.007507 209.597900,141.263428 
	C210.018570,141.507172 210.127335,141.967911 210.127335,141.967911 
z"/>
<path fill="#9EBAA7" opacity="1.000000" stroke="none" 
	d="
M210.323303,141.882751 
	C210.127335,141.967911 210.018570,141.507172 210.058014,141.273788 
	C210.097443,141.040405 210.542297,140.986984 210.759521,141.041687 
	C210.918930,141.391907 210.766434,141.625641 210.323303,141.882751 
z"/>
<path fill="#9EBAA7" opacity="1.000000" stroke="none" 
	d="
M220.940155,141.706772 
	C220.606613,141.927917 220.359192,141.768387 220.101227,141.290451 
	C220.333633,141.196960 220.645477,141.314972 220.940155,141.706772 
z"/>
<path fill="#9EBAA7" opacity="1.000000" stroke="none" 
	d="
M220.255020,173.977875 
	C220.074188,173.603836 220.235016,173.356461 220.714233,173.099060 
	C220.926361,173.019928 221.042862,173.490829 221.006790,173.730682 
	C220.970718,173.970520 220.490417,174.035446 220.255020,173.977875 
z"/>
<path fill="#9EBAA7" opacity="1.000000" stroke="none" 
	d="
M100.035866,229.264648 
	C100.079300,229.027115 100.532776,228.994400 100.753426,229.049103 
	C100.913040,229.401474 100.756737,229.635498 100.306198,229.888611 
	C100.107224,229.971313 99.992432,229.502182 100.035866,229.264648 
z"/>
<path fill="#9EBAA7" opacity="1.000000" stroke="none" 
	d="
M100.086548,250.292725 
	C100.404175,250.093842 100.639313,250.252563 100.893219,250.704330 
	C100.671326,250.789886 100.368683,250.674210 100.086548,250.292725 
z"/>
<path fill="#9EBAA7" opacity="1.000000" stroke="none" 
	d="
M89.888397,217.690308 
	C89.971573,217.885345 89.505959,217.990082 89.270927,217.948822 
	C89.035896,217.907562 88.994331,217.460419 89.054848,217.244186 
	C89.403931,217.097198 89.633888,217.252975 89.888397,217.690308 
z"/>
<path fill="#FBF6DA" opacity="1.000000" stroke="none" 
	d="
M178.471329,52.931084 
	C178.441391,52.621685 178.836197,52.213642 179.281418,52.148098 
	C186.992294,51.012901 186.993652,51.022102 186.993668,42.905186 
	C186.993668,42.410545 186.993683,41.915901 186.993683,41.421261 
	C186.993683,32.584499 186.993668,32.584499 178.345886,31.400158 
	C181.042374,31.098938 184.045975,31.054743 187.499191,31.028797 
	C187.969482,38.041538 187.990189,45.036034 187.986298,52.496029 
	C184.947647,52.971638 181.933578,52.981739 178.471329,52.931084 
z"/>
<path fill="#FBF6DA" opacity="1.000000" stroke="none" 
	d="
M176.929581,29.526218 
	C176.618362,29.556065 176.210861,29.161806 176.145538,28.717274 
	C175.012177,21.003574 175.021347,21.001842 166.926071,21.002363 
	C163.303482,21.002596 159.680908,21.004717 155.598648,20.997543 
	C155.138977,20.989103 155.008926,20.526058 155.027588,20.286304 
	C162.040359,20.028896 169.034439,20.011242 176.493805,20.019318 
	C176.970230,23.056271 176.981384,26.067495 176.929581,29.526218 
z"/>
<path fill="#FBF6DA" opacity="1.000000" stroke="none" 
	d="
M88.515068,30.927109 
	C85.654419,31.244944 82.342308,31.624153 78.584991,31.996124 
	C78.139793,31.988882 78.008995,31.525997 78.027634,31.286217 
	C81.385384,31.027119 84.724495,31.007803 88.515068,30.927109 
z"/>
<path fill="#FBF6DA" opacity="1.000000" stroke="none" 
	d="
M78.072922,52.241943 
	C81.576118,52.175861 85.014091,52.341743 88.710983,52.825752 
	C85.631195,53.096500 82.292473,53.049122 78.499611,52.978043 
	C78.045464,52.954342 78.007698,52.473907 78.072922,52.241943 
z"/>
<path fill="#FBF6DA" opacity="1.000000" stroke="none" 
	d="
M144.063278,30.517780 
	C143.737274,29.111973 142.963303,27.227440 143.078201,25.398752 
	C143.303467,21.813086 141.823074,20.797653 138.442902,20.944925 
	C133.323532,21.167971 128.187363,21.004965 122.598648,20.997547 
	C122.138977,20.989111 122.008934,20.526066 122.027596,20.286312 
	C129.041794,20.028429 136.037338,20.010303 143.498718,20.013901 
	C143.982040,23.378515 143.999557,26.721405 144.063278,30.517780 
z"/>
<path fill="#060606" opacity="1.000000" stroke="none" 
	d="
M199.655151,185.006989 
	C199.170609,181.640366 199.127960,178.270325 199.594818,174.448364 
	C203.426025,173.984833 206.747726,173.973236 210.046280,173.971451 
	C210.023132,173.981247 210.045105,173.935532 210.045105,173.935532 
	C210.029541,177.316452 210.013977,180.697357 209.995605,184.535995 
	C206.694214,184.997009 203.395615,185.000290 199.655151,185.006989 
z"/>
<path fill="#A0BCA9" opacity="1.000000" stroke="none" 
	d="
M198.263153,206.970749 
	C198.076096,206.600647 198.234421,206.356583 198.706436,206.102081 
	C198.915451,206.023712 199.030487,206.504700 199.014374,206.751465 
	C198.998260,206.998215 198.503891,207.028900 198.263153,206.970749 
z"/>
<path fill="#2A2725" opacity="1.000000" stroke="none" 
	d="
M328.024109,198.396332 
	C329.873962,198.131500 331.679718,198.126389 333.373291,198.559753 
	C333.661530,198.633514 333.919159,201.011154 333.391510,201.570938 
	C332.622955,202.386353 330.503906,203.202805 330.069061,202.805527 
	C329.018402,201.845688 328.609711,200.183105 328.024109,198.396332 
z"/>
<path fill="#332B29" opacity="1.000000" stroke="none" 
	d="
M377.884399,203.035126 
	C379.554169,202.648788 381.063873,202.597092 382.573608,202.545395 
	C382.597717,204.445755 382.894348,206.406799 382.492310,208.212265 
	C382.358643,208.812469 380.431793,209.013336 379.324707,209.396759 
	C378.791260,207.387756 378.257812,205.378784 377.884399,203.035126 
z"/>
<path fill="#9EBAA7" opacity="1.000000" stroke="none" 
	d="
M210.106827,173.016663 
	C210.403336,173.088303 210.638397,173.249512 210.893448,173.702148 
	C210.974854,173.904022 210.513107,174.012024 210.279114,173.973785 
	C210.045105,173.935532 210.023132,173.981247 210.006531,173.733261 
	C209.989944,173.485275 210.106827,173.016663 210.106827,173.016663 
z"/>
<path fill="#FBF6DA" opacity="1.000000" stroke="none" 
	d="
M155.086853,30.262903 
	C155.260483,30.215155 155.379166,30.398233 155.457886,30.597120 
	C155.469559,30.626629 155.292923,30.730682 155.053696,30.888237 
	C154.903976,30.976227 155.018967,30.498848 155.086853,30.262903 
z"/>
<path fill="#FBF6DA" opacity="1.000000" stroke="none" 
	d="
M111.063278,30.518105 
	C110.737312,29.112074 109.963776,27.227757 110.078217,25.399010 
	C110.302429,21.816391 108.827370,20.795458 105.444763,20.942812 
	C100.325638,21.165813 95.189659,21.001862 89.601318,20.995703 
	C89.141808,20.989077 89.010651,20.526779 89.029160,20.287222 
	C92.392960,20.028273 95.738243,20.008881 99.535675,19.923025 
	C103.334824,19.912088 106.681831,19.967613 110.483292,20.038250 
	C110.964180,23.390554 110.990616,26.727743 111.063278,30.518105 
z"/>
<path fill="#FBF6DA" opacity="1.000000" stroke="none" 
	d="
M122.086868,30.262857 
	C122.260498,30.215107 122.379158,30.398199 122.457893,30.597097 
	C122.469574,30.626616 122.292938,30.730677 122.053696,30.888239 
	C121.903969,30.976227 122.018974,30.498817 122.086868,30.262857 
z"/>
<path fill="#332B29" opacity="1.000000" stroke="none" 
	d="
M542.913208,209.659698 
	C541.605652,209.217133 539.931763,208.740067 539.869873,208.105728 
	C539.679810,206.157410 539.913879,204.095993 540.431396,202.200974 
	C540.560120,201.729828 543.187683,201.335114 543.296021,201.561478 
	C544.085632,203.210602 544.792236,205.002670 544.958923,206.802048 
	C545.038391,207.660034 543.881226,208.632614 542.913208,209.659698 
z"/>
<path fill="#332B29" opacity="1.000000" stroke="none" 
	d="
M495.276245,202.788696 
	C497.057678,202.636993 498.653961,202.836441 500.250244,203.035873 
	C499.880585,205.105820 499.510925,207.175766 499.141296,209.245728 
	C497.754547,208.668045 495.849548,208.448059 495.131989,207.408493 
	C494.462402,206.438400 495.054413,204.597473 495.276245,202.788696 
z"/>
<path fill="#000000" opacity="1.000000" stroke="none" 
	d="
M88.990433,195.803757 
	C85.527863,195.803757 82.065285,195.803757 78.338486,195.803757 
	C78.338486,170.331375 78.338486,145.079712 78.338486,119.443336 
	C114.575531,119.443336 150.936569,119.443336 187.932205,119.443336 
	C187.932205,133.900085 187.932205,148.482819 187.470764,163.517426 
	C183.743851,163.644745 180.478378,163.320190 177.152008,162.530792 
	C177.033997,151.703568 176.976883,141.341217 176.936890,130.706543 
	C176.643829,130.316864 176.333649,130.199493 175.556854,130.020691 
	C146.718231,130.005661 118.346252,130.052063 89.709534,130.081848 
	C89.332932,130.366516 89.221062,130.667786 89.044937,131.435791 
	C89.020241,149.275574 89.059799,166.648621 89.038696,184.243225 
	C88.978027,184.464798 89.030457,184.921249 89.021927,185.380707 
	C89.005745,189.161377 88.998085,192.482559 88.990433,195.803757 
z"/>
<path fill="#000000" opacity="1.000000" stroke="none" 
	d="
M176.993851,195.797943 
	C151.642395,195.838165 126.290955,195.878403 100.471367,195.420258 
	C100.004868,191.679749 100.006508,188.437637 100.472878,185.137787 
	C107.302475,185.013916 113.667336,184.947784 120.362213,184.937119 
	C121.133453,184.943130 121.574684,184.893661 122.479607,184.907501 
	C129.632248,184.923569 136.321182,184.876343 143.331955,184.898438 
	C144.089325,184.933594 144.524857,184.899445 145.425507,184.945633 
	C155.934204,184.989471 165.977814,184.952957 176.260010,184.972580 
	C176.498627,185.028702 176.981537,184.944061 176.986725,185.401703 
	C176.992569,189.172195 176.993210,192.485077 176.993851,195.797943 
z"/>
<path fill="#030303" opacity="1.000000" stroke="none" 
	d="
M177.445633,195.861023 
	C176.993210,192.485077 176.992569,189.172195 177.012970,185.168579 
	C177.034027,184.477814 176.919693,184.022766 176.981079,183.556305 
	C177.099289,176.391785 177.156097,169.693710 177.212921,162.995651 
	C180.478378,163.320190 183.743851,163.644745 187.407776,163.981888 
	C187.850327,174.028122 187.894440,184.061768 187.709488,194.652679 
	C187.276566,195.364441 187.125183,195.559631 187.026260,195.795517 
	C183.983307,195.838379 180.940369,195.881241 177.445633,195.861023 
z"/>
<path fill="#000000" opacity="1.000000" stroke="none" 
	d="
M210.043198,172.550812 
	C210.106827,173.016663 209.989944,173.485275 210.029694,173.723465 
	C206.747726,173.973236 203.426025,173.984833 199.659027,173.994110 
	C199.172089,166.975540 199.130432,159.959305 199.147430,152.478668 
	C202.450745,152.010773 205.695435,152.007263 209.382660,152.008331 
	C209.876663,158.703583 209.928116,165.394287 210.043198,172.550812 
z"/>
<path fill="#060606" opacity="1.000000" stroke="none" 
	d="
M100.008148,185.195526 
	C100.006508,188.437637 100.004868,191.679749 100.006577,195.362732 
	C96.640129,195.846512 93.270332,195.889404 89.445488,195.868011 
	C88.998085,192.482559 89.005745,189.161377 89.259239,185.422485 
	C89.505081,185.004776 89.975334,184.899414 90.428009,184.959793 
	C93.923172,185.078613 96.965668,185.137070 100.008148,185.195526 
z"/>
<path fill="#000000" opacity="1.000000" stroke="none" 
	d="
M177.729614,207.172943 
	C177.877029,207.431183 177.731186,207.627701 177.365662,207.871170 
	C177.046616,207.600418 177.143417,207.331436 177.729614,207.172943 
z"/>
<path fill="#000000" opacity="1.000000" stroke="none" 
	d="
M187.266724,195.820374 
	C187.125183,195.559631 187.276566,195.364441 187.643738,195.118927 
	C187.970444,195.396973 187.870483,195.669418 187.266724,195.820374 
z"/>
<path fill="#000000" opacity="1.000000" stroke="none" 
	d="
M166.060532,62.563110 
	C166.094513,63.183346 166.051025,63.357540 166.038208,63.799294 
	C162.693634,64.040459 159.318375,64.014053 155.487717,63.941299 
	C155.032303,60.445957 155.032303,56.996971 155.032303,53.001831 
	C158.489655,53.001831 161.741638,53.001831 165.507446,53.252014 
	C166.021271,53.502197 166.157410,53.972771 166.157410,53.972771 
	C166.099289,56.687534 166.041168,59.402302 166.060532,62.563110 
z"/>
<path fill="#000000" opacity="1.000000" stroke="none" 
	d="
M110.982758,63.440323 
	C107.596565,63.929985 104.225212,63.963371 100.393188,64.031693 
	C99.960564,60.692299 99.988609,57.317978 100.061218,53.488155 
	C103.554794,53.032654 107.003815,53.032654 110.997597,53.032654 
	C110.997597,56.482552 110.997597,59.733299 110.982758,63.440323 
z"/>
<path fill="#FBF6DA" opacity="1.000000" stroke="none" 
	d="
M166.280396,53.855949 
	C166.157410,53.972771 166.021271,53.502197 165.964493,53.263954 
	C166.072937,53.263519 166.238159,53.501324 166.280396,53.855949 
z"/>
<path fill="#8AA493" opacity="1.000000" stroke="none" 
	d="
M100.472885,185.137787 
	C96.965668,185.137070 93.923172,185.078613 90.342911,184.760193 
	C89.629875,184.252228 89.394615,184.092697 89.099358,184.021652 
	C89.059799,166.648621 89.020241,149.275574 89.244545,131.353333 
	C89.761078,130.633209 89.916367,130.397995 89.974266,130.098465 
	C118.346252,130.052063 146.718231,130.005661 175.634552,130.232056 
	C176.356445,130.771301 176.603394,130.929321 176.919769,130.978867 
	C176.976883,141.341217 177.033997,151.703568 177.152008,162.530792 
	C177.156097,169.693710 177.099289,176.391785 176.770020,183.633926 
	C176.231613,184.354996 176.072891,184.601151 176.021408,184.916443 
	C165.977814,184.952957 155.934204,184.989471 145.304474,184.741760 
	C144.494980,184.223206 144.230255,184.053253 143.952637,183.493896 
	C143.981079,180.150620 143.981079,177.261139 143.981079,174.361160 
	C136.259216,174.361160 129.404099,174.361160 121.945747,174.361160 
	C121.945747,177.810196 121.945747,180.909866 121.667763,184.023163 
	C120.937248,184.318420 120.484726,184.600037 120.032204,184.881653 
	C113.667336,184.947784 107.302475,185.013916 100.472885,185.137787 
M102.800598,162.983765 
	C109.049568,162.983765 115.298538,162.983765 121.655533,162.983765 
	C121.655533,155.325562 121.655533,148.443359 121.655533,141.322311 
	C114.414444,141.322311 107.532791,141.322311 100.075592,141.322311 
	C100.075592,148.058868 100.022049,154.491821 100.154427,160.920959 
	C100.168411,161.599930 101.275276,162.256424 102.800598,162.983765 
M166.012894,155.424011 
	C166.012894,150.822510 166.012894,146.220993 166.012894,141.460480 
	C158.360870,141.460480 151.364609,141.460480 144.429596,141.460480 
	C144.429596,148.805069 144.429596,155.686295 144.429596,162.626678 
	C151.728363,162.626678 158.608124,162.626678 166.013016,162.626678 
	C166.013016,160.305359 166.013016,158.351013 166.012894,155.424011 
z"/>
<path fill="#A0BCA9" opacity="1.000000" stroke="none" 
	d="
M89.709534,130.081848 
	C89.916367,130.397995 89.761078,130.633209 89.308792,130.886597 
	C89.221062,130.667786 89.332932,130.366516 89.709534,130.081848 
z"/>
<path fill="#A0BCA9" opacity="1.000000" stroke="none" 
	d="
M176.936874,130.706543 
	C176.603394,130.929321 176.356445,130.771301 176.101196,130.293488 
	C176.333649,130.199493 176.643829,130.316864 176.936874,130.706543 
z"/>
<path fill="#9BB6A3" opacity="1.000000" stroke="none" 
	d="
M89.038696,184.243225 
	C89.394615,184.092697 89.629875,184.252228 89.890228,184.699829 
	C89.975334,184.899414 89.505081,185.004776 89.267769,184.963013 
	C89.030457,184.921249 88.978027,184.464798 89.038696,184.243225 
z"/>
<path fill="#B46E6F" opacity="1.000000" stroke="none" 
	d="
M121.945747,184.009537 
	C121.945747,180.909866 121.945747,177.810196 121.945747,174.361160 
	C129.404099,174.361160 136.259216,174.361160 143.981079,174.361160 
	C143.981079,177.261139 143.981079,180.150620 143.757706,183.592316 
	C143.279465,184.311356 143.104721,184.539551 143.010132,184.829117 
	C136.321182,184.876343 129.632248,184.923569 122.471451,184.698059 
	C121.999596,184.425354 121.945747,184.009537 121.945747,184.009537 
z"/>
<path fill="#9BB6A3" opacity="1.000000" stroke="none" 
	d="
M121.667763,184.023163 
	C121.945747,184.009537 121.999596,184.425354 122.007751,184.634781 
	C121.574684,184.893661 121.133453,184.943130 120.362213,184.937119 
	C120.484726,184.600037 120.937248,184.318420 121.667763,184.023163 
z"/>
<path fill="#A0BCA9" opacity="1.000000" stroke="none" 
	d="
M143.331955,184.898438 
	C143.104721,184.539551 143.279465,184.311356 143.729263,184.046112 
	C144.230255,184.053253 144.494980,184.223206 144.839386,184.661407 
	C144.524857,184.899445 144.089325,184.933594 143.331955,184.898438 
z"/>
<path fill="#A0BCA9" opacity="1.000000" stroke="none" 
	d="
M176.260010,184.972565 
	C176.072891,184.601151 176.231613,184.354996 176.708618,184.100388 
	C176.919693,184.022766 177.034027,184.477814 177.007782,184.710938 
	C176.981537,184.944061 176.498627,185.028702 176.260010,184.972565 
z"/>
<path fill="#B46E6F" opacity="1.000000" stroke="none" 
	d="
M102.337860,162.953552 
	C101.275276,162.256424 100.168411,161.599930 100.154427,160.920959 
	C100.022049,154.491821 100.075592,148.058868 100.075592,141.322311 
	C107.532791,141.322311 114.414444,141.322311 121.655533,141.322311 
	C121.655533,148.443359 121.655533,155.325562 121.655533,162.983765 
	C115.298538,162.983765 109.049568,162.983765 102.337860,162.953552 
z"/>
<path fill="#B46E6F" opacity="1.000000" stroke="none" 
	d="
M166.012955,155.910339 
	C166.013016,158.351013 166.013016,160.305359 166.013016,162.626678 
	C158.608124,162.626678 151.728363,162.626678 144.429596,162.626678 
	C144.429596,155.686295 144.429596,148.805069 144.429596,141.460480 
	C151.364609,141.460480 158.360870,141.460480 166.012894,141.460480 
	C166.012894,146.220993 166.012894,150.822510 166.012955,155.910339 
z"/>
</svg>